<?xml version="1.0" encoding="UTF-8"?><svg xmlns="http://www.w3.org/2000/svg" xmlns:xlink="http://www.w3.org/1999/xlink" height="485.8" preserveAspectRatio="xMidYMid meet" version="1.0" viewBox="0.0 0.0 485.8 485.8" width="485.8" zoomAndPan="magnify"><g id="change1_1"><path d="M366.7592773,485.7602539H119.0014648C53.3837891,485.7602539,0,432.3764648,0,366.7592773V119.0014648 C0,53.3837891,53.3837891,0,119.0014648,0h247.7578125c65.6171875,0,119.0009766,53.3837891,119.0009766,119.0014648v247.7578125 C485.7602539,432.3764648,432.3764648,485.7602539,366.7592773,485.7602539z M119.0014648,15 C61.6547852,15,15,61.6547852,15,119.0014648v247.7578125c0,57.3466797,46.6547852,104.0009766,104.0014648,104.0009766h247.7578125 c57.3466797,0,104.0009766-46.6542969,104.0009766-104.0009766V119.0014648C470.7602539,61.6547852,424.105957,15,366.7592773,15 H119.0014648z M324.6401367,235.3803711h-74.2597656v-74.2602539c0-4.1420898-3.3574219-7.5-7.5-7.5 c-4.1420898,0-7.5,3.3579102-7.5,7.5v74.2602539h-74.2602539c-4.1420898,0-7.5,3.3579102-7.5,7.5c0,4.1425781,3.3579102,7.5,7.5,7.5 h74.2602539v74.2597656c0,4.1425781,3.3579102,7.5,7.5,7.5c4.1425781,0,7.5-3.3574219,7.5-7.5v-74.2597656h74.2597656 c4.1425781,0,7.5-3.3574219,7.5-7.5C332.1401367,238.7382812,328.7827148,235.3803711,324.6401367,235.3803711z" fill="inherit"/></g></svg>