<?xml version="1.0" encoding="UTF-8" standalone="no"?><svg xmlns="http://www.w3.org/2000/svg" xmlns:xlink="http://www.w3.org/1999/xlink" fill="#000000" height="69.5" preserveAspectRatio="xMidYMid meet" version="1" viewBox="2.8 1.0 144.4 69.5" width="144.4" zoomAndPan="magnify"><g transform="translate(-371.35 -289.7)"><use height="70" transform="translate(0 4)" width="150" xlink:actuate="onLoad" xlink:href="#a" xlink:show="embed" xlink:type="simple"/><use height="70" id="a" transform="rotate(-.745 907.7 324.92)" width="150" xlink:actuate="onLoad" xlink:href="#b" xlink:show="embed" xlink:type="simple"/><use height="70" id="b" transform="translate(0 4)" width="150" xlink:actuate="onLoad" xlink:href="#c" xlink:show="embed" xlink:type="simple"/><g id="c"><g id="change1_1"><path d="m33.394 87.424s25.086 8.113 37.119 17.157c8.1437 3.9334 22.913 11.379 29.38 11.614 1.1233-2.4549 41.824-11.434 49.868-14.902s24.668-12.924 25.74-14.184-28.958-11.978-43.973-13.869-16.128-10.019-19.345-10.334-11.438 6.0289-31.312 12.773c-19.45 6.6006-48.013 10.169-47.477 11.745z" fill="#746457" fill-rule="evenodd" stroke="#000000" stroke-linecap="round" stroke-linejoin="round" stroke-width="0.876" transform="translate(341.59 228.39)"/></g><g id="change2_1"><path d="m33.394 87.424s26.813 7.2498 35.393 11.978 28.421 16.391 31.103 16.706 41.828-11.348 49.871-14.815 24.668-12.924 25.74-14.184-28.958-11.978-43.973-13.869-16.128-10.019-19.345-10.334-11.438 6.0289-31.312 12.773c-19.45 6.6006-48.013 10.169-47.477 11.745z" fill="#766050" fill-rule="evenodd" stroke="#000000" stroke-linecap="round" stroke-linejoin="round" stroke-width="0.876" transform="translate(341.59 228.39)"/></g><g id="change3_1"><path d="m119.1875,69.9375c-1.45597.19227-2.68111.71274.09375,1.25-.57763-1.1187-.00851-.13578.9375-.5625-.32495-.23275-.65053-.45354-.9375-.6875h-.09375zm-8.8125.03125c-.88859.04828-1.60254.41755.28125.96875l.21875-.0625 .3125-.0625c1.1577-.64275.07609-.89203-.8125-.84375zm-3,.5625c-.43484.01076-.46605.27259.65625,1.03125 3.20073.14473.3004-1.05491-.65625-1.03125zm.28125.09375c.07524-.02055.39642.08409 1.15625.375 .64538.72095-1.38197-.31334-1.15625-.375zm8.625.28125c-.78351-.00866-1.19782.24525.28125,1 3.39281-.25552 1.0246-.98557-.28125-1zm.65625.4375c.06913-.00105.16717.00589.3125.03125 .35649.51424-.79643-.02389-.3125-.03125zm-11.6875.03125c-.68672-.04878-1.00971.06489.375.5625 2.93859.05029.76953-.4812-.375-.5625zm7.84375.40625c-.74056.04052-.82209.27509 1.40625.84375 2.87731-.43149-.17198-.91129-1.40625-.84375zm-9.1875.25c-1.09347.06999-2.0659.45256.125,1l.15625-.03125 .3125-.0625c1.72134-.74034.49972-.97624-.59375-.90625zm-.03125.09375c.12641.01872.28507.07256.53125.15625 .28332.93204-1.41612-.28731-.53125-.15625zm17.9375.28125c-.14744.05083-.18021.19074.0625.5 1.85228.06873.37982-.65248-.0625-.5zm-10.53125.28125c-.28893.00634-.60586.07539-.875.15625 .03921-.0332.26814.01692.84375.1875 .65964.62577-.96139-.0879-.84375-.1875-.77945.23418-1.1595.6585.84375.84375h.21875 .3125c.67692-.76858.17542-1.01482-.5-1zm-10.59375.09375c-.50546.05801-.60184.33127.5625,1.0625 .75901.60671 1.23222-.56822.5-.8125 2.75649.41569-.00844-.37097-1.0625-.25zm24.03125.25c-.7692.12018-2.76711.67075-3.90625,1.375 .81327.17475 1.52476-.27464 2.1875-.625 1.13208-.34494 1.67437-.56934 1.90625-.6875l-.1875-.0625zm-4.59375.09375c-.03009-.00275-.05067.02643-.0625.03125 .02284.02796.10424.08208.25.15625 1.6801.37242.17355-.15456-.1875-.1875zm-12.53125.21875c-.8173.01095-1.03072.30799 1.0625,1.125 3.32073-.37983.29967-1.14325-1.0625-1.125zm11.0625.21875c-.52167.07748-1.09929.33704-1.09375.8125 2.64756-.58224 1.9632-.94164 1.09375-.8125zm-10.71875.0625c.03996-.03333.26531.0147.84375.1875 .65758.63103-.96363-.08751-.84375-.1875zm-10.65625.21875c-.52803.03936-.75049.28323.09375.96875 3.73904-.0656 1.06792-1.05534-.09375-.96875zm26.6875.5625c-.2655-.00102-.40696.10734.0625.46875 1.1623-.13825.38001-.46706-.0625-.46875zm-4.21875.03125c-.05414.02177-.03035.09001.15625.25 1.93692.56425.07837-.34435-.15625-.25zm-25.40625.15625c-1.08481-.02611-1.97637.1929-1.21875,1.0625 .31117.10624.62653.20635.9375.3125-.85624-.82932 3.17368-.08281.75-1.125 3.72017.52453 1.33927-.20648-.46875-.25zm32.65625.03125c-.05265.02216-.03177.12281.15625.28125 1.92102.54924.0719-.37726-.15625-.28125zm4,0c-.14835.01209-.21999.12189-.09375.4375 1.37614.37667.8512-.22101.375-.40625-.09524-.03705-.20708-.0373-.28125-.03125zm-25.84375.0625c-1.07004-.0529-2.09683.19153.0625.90625h.15625c1.97938-.49938.85129-.85335-.21875-.90625zm10.8125,0c-.35323-.03273-1.45544.26711-2.625.96875 .25827-.0151.52319-.04729.78125-.0625 1.80801-.52526 2.19698-.87352 1.84375-.90625zm7.40625.1875c-3.24773.59142-2.42421,1.24715.125.25 1.51953.60895.08578-.374-.125-.25zm-4.71875.15625c-1.392.1114-4.76516.87381-2.8125,1.375l.78125-.375 .8125-.28125c2.16139-.5938 2.05395-.78559 1.21875-.71875zm-16.8125.09375c-.93853-.03187-1.29115.26728.78125,1.21875 3.94477-.21571.78297-1.16564-.78125-1.21875zm23.65625.03125c-.03999.01942.03398.07501.25.21875 1.8774.50929-.07672-.30289-.25-.21875zm7.4375.09375c-.03843.0198.00196.07696.21875.21875 1.85673.49204-.05223-.30454-.21875-.21875zm-2.90625.15625c-.76091.02779-2.92349.39831-1.28125.46875 1.70532-.39093 1.7378-.48542 1.28125-.46875zm2.5,0c-.07979.01152-.10647.13281.03125.4375 1.01392.43786.20813-.47206-.03125-.4375zm-7.84375.03125c-.06198.04319.05127.14287.5.3125 1.40272-.10932-.31406-.44208-.5-.3125zm-22.28125.0625c.07635-.03933.2875-.0155.71875.1875 .04327.743-.94781-.0695-.71875-.1875zm33.96875,0c-.78336.04634-1.45478.21452.3125.34375 .32587-.07504.492-.13902.59375-.1875-.30793-.06289-.60475-.0977-.90625-.15625zm-45.21875.03125c-.24056-.00814-.33872.19276-.0625.75 2.80658,1.08122.78418-.72557.0625-.75zm40.59375.21875c-.05238.0072-.03877.07676.15625.28125 .85393.29894.0009-.30286-.15625-.28125zm-8.53125.25c-.19946.00325-.32771.09495-.1875.28125 2.16725.30419.78589-.29099.1875-.28125zm-15.15625.03125c-11.82697,4.19844-24.29097,7.50819-36.75,11.0625 6.16581,2.70408 12.32466,5.42302 18.4375,8.09375 5.63853,1.51214 10.91683,7.14306 16.96875,4.5 11.54878-3.76533 22.79207-7.82366 33.78125-11.96875-5.62745-2.22531-11.30247-4.49905-17.03125-6.78125-5.08142-1.55918-9.92241-5.21241-15.40625-4.90625zm-8.84375.03125c-.55862.05037-.61284.34375.78125,1.0625 4.09827-.12913.44772-1.17332-.78125-1.0625zm35.40625.03125c-.15748.04417-.33378.18228-.46875.46875 1.26888.09159.9412-.60127.46875-.46875zm-45.8125.0625c-.49792.00177-.65791.26151.28125,1.03125 3.56653.20742.81417-1.03514-.28125-1.03125zm41.53125.0625c-.05667.02826-.04691.10783.0625.28125 1.53639.53667.18308-.40373-.0625-.28125zm-41.4375.0625c.0796-.02245.37993.04761 1.125.34375 .57698.74859-1.3638-.27639-1.125-.34375zm49,0c-.11395.00637-.1703.07809-.09375.25 1.2317.24832.4356-.2691.09375-.25zm-11.28125.03125c-.46783.01315-1.1.2511-1.375.90625 2.48541-.32677 2.15472-.92817 1.375-.90625zm-40.71875.0625c-.0179.00728-.02776.01651-.03125.03125-.02442.10314.29894.40082 1.3125,1 3.41167.66443-.7216-1.14811-1.25-1.03125h-.03125zm36.46875.0625c-.21241-.01431-.76054.15666-1.65625.71875 1.43435-.15039 2.01027-.69491 1.65625-.71875zm-21.90625.09375c.0734.00025.1603.03337.3125.0625 .33894.54058-.82631-.06421-.3125-.0625zm-2.96875.0625c-1.44089-.07535-2.80808.27282.21875,1.28125 2.73672-.70704 1.22214-1.2059-.21875-1.28125zm20.34375,0c-.15971.01983-.40939.15499-.78125.53125 .86389.48693 1.26038-.59073.78125-.53125zm15.34375.03125c-.10876-.00338-.16389.06799-.0625.25 1.22663.36009.38879-.23985.0625-.25zm6.6875.03125c-.05038-.02735-.20978.1148-.5.5625-.03878,1.06842.65113-.48045.5-.5625zm-11.84375.125c-.18367-.00601-.24371.11837 0,.40625 2.20193.57583.55102-.38823 0-.40625zm9.09375.0625c-.53865.03329-3.00393.55841-.375.1875 .25146-.07344.38898-.12865.4375-.15625-.01436-.00472-.01761-.03402-.0625-.03125zm-43.03125.0625c-.14298-.00237-.25143.09326-.28125.34375 1.31896.47364.7102-.33664.28125-.34375zm3.1875.21875c.09643.00513.24568.01224.46875.0625 .88076.77046-1.14377-.09838-.46875-.0625zm34.5625,0c-.28374.03962-.6593.17703-1.0625.46875 1.99817.14469 1.91373-.58762 1.0625-.46875zm11.6875,0c.02855.04224.04109.06551.09375.125 .40798.10863.55182.08525.5625.03125-.22091-.05724-.43644-.10021-.65625-.15625zm-.875.15625c-.30141.01896-.50887.12285-.15625.4375 1.39105-.22115.6586-.46909.15625-.4375zm-47.78125.125c-.19847-.01969-.0912.13175.65625.5625 3.25075.9644-.06083-.50342-.65625-.5625zm-1.9375.03125c-.26397-.03789-.11662.16183.84375.75 4.26281,1.42242-.05183-.63634-.84375-.75zm30.21875,0c-.60085.03973-1.48654.34469-2.28125,1.1875l.5625.0625 .3125-.25c2.58185-.36863 2.40766-1.06622 1.40625-1zm-4,.03125c-.14348.03487-.27798.13774-.3125.375 1.3153.09229.74295-.47962.3125-.375zm7.71875,0c-.12025-.00639-.09619.02161.25.125 1.77757.2474.11076-.10584-.25-.125zm7.375.03125c-.2065.00261-.40703.08428-.5.3125 1.81509.38573 1.11951-.32033.5-.3125zm11.1875.125c-.15765.10903-.3329.20905-.5.375 .5355-.03256.89653-.10061 1.1875-.1875l-.6875-.1875zm-62.40625.0625c-.60576.04893-.69658.38421.71875,1.21875 4.41663-.08659.61392-1.32639-.71875-1.21875zm47.28125.0625c-.16784-.03127-.2619.04675.0625.34375 .72377.04099.21723-.29163-.0625-.34375zm7.1875.0625c-.06887.01451-.07953.07238.03125.21875 .86059.12417.17537-.26228-.03125-.21875zm4.1875,0c-.60095.06135-1.69525.40142-.125.34375 .65832-.32583.48557-.38056.125-.34375zm-15.3125.03125c-.31287-.01614-1.09412.20637-2.40625.9375 2.10988-.20817 2.9277-.91061 2.40625-.9375zm2.1875.0625c-.05525.02976.09573.14561.59375.40625 1.42686.18349-.42799-.49552-.59375-.40625zm-47.78125.15625-.28125.09375c.13536.11679.3482.29598.78125.5625 3.94593,1.32859.71302-.27527-.5-.65625zm63.4375,0c-.10714-.00195-.16924.06961-.0625.25 1.22065.34341.38391-.24415.0625-.25zm-4.09375.03125c-.13163.0022-.22875.09564-.21875.34375 1.28165.42551.61364-.35034.21875-.34375zm7.4375.09375c-.78596.27791-1.69451.73508-2.25,1.28125 .67851-.11043 1.28792-.39881 1.90625-.6875 .43912-.16403.73497-.28936 1-.40625-.21966-.0619-.43678-.12642-.65625-.1875zm-56,.03125c-.53657.04123-.59964.34822.75,1.1875 3.93953-.03422.43046-1.2782-.75-1.1875zm44.84375,0c-.10867-.00293-.16562.0673-.0625.25 1.22887.35693.38852-.24123.0625-.25zm-4.21875.09375c-.09111.00979-.07955.10135.125.34375 1.24282.34234.14832-.37312-.125-.34375zm-4.15625.15625c-.3526-.0344-.98823.12116-1.59375.75 2.03127-.07479 2.18142-.69266 1.59375-.75zm11.375.03125c.0339.03015.10252.08256.21875.15625 .84425.2888-.02678-.11438-.21875-.15625zm-59.6875.03125c-.22056.00084-.22585.23425.34375.84375 3.14269,1.08906.31794-.84626-.34375-.84375zm63,.0625c-.16012.01035-.31198.14743-.375.4375 1.42375.42278.85537-.46855.375-.4375zm-7.03125.09375c-.47686-.00724-1.04154.02884-.28125.125 1.14715-.06718.75811-.11776.28125-.125zm2.90625.03125c-.15775.02836-.32393.1341-.4375.4375 1.30994.27388.91074-.52257.4375-.4375zm-45.78125.09375c.07528.00078.15736.03179.3125.0625 .32938.5519-.83949-.06797-.3125-.0625zm37.8125,0c-.01367.02969.14946.1191.65625.25 1.04344-.04938-.61524-.33906-.65625-.25zm19.28125.0625c-.81994.31642-1.28447.57134.53125.125-.17603-.05157-.35503-.07383-.53125-.125zm-15.96875.03125c-.27049.00834-.62576.20348-.9375.8125 1.70345.1181 1.53257-.83086.9375-.8125zm-11.46875.09375c-.52153.01593-.93188.35694.65625.4375 .00329-.32536-.34333-.44706-.65625-.4375zm19.21875.03125c-.10792-.00223-.13698.06797-.03125.25 1.22636.34903.35501-.24332.03125-.25zm-52.75.03125c-.77485.01816-.99143.33476 1,1.125 3.14549-.40583.29142-1.15527-1-1.125zm.0625.09375c.02784-.02262.22167.00044.71875.09375 .62742.38511-.80229-.02589-.71875-.09375zm-11.875.0625c-.53275.04106-.5643.38788.78125,1.3125 3.91306-.0088.39081-1.40283-.78125-1.3125zm59.5.0625c-.03384.01558.02768.04498.25.15625 1.81457.38537-.10337-.22378-.25-.15625zm-46.375.125c.07416.00825.17278.04163.3125.09375 .07747.69795-.83161-.1515-.3125-.09375zm39.21875.03125c-.55206.06189-1.50681.37796-2.4375,1.0625 3.17343-.58599 3.3576-1.16565 2.4375-1.0625zm-3.75.0625c-.60582.01044-1.78737.28804-.25.375 .7785-.2993.61349-.38126.25-.375zm-39.125.03125c-.18752.02487-.09471.28228.625.90625 3.09568.88436-.06243-.98087-.625-.90625zm57.5625.03125c-.42807.00617-.79447.08746.21875.21875 .69907-.15596.20932-.22492-.21875-.21875zm7.09375,0c-.0702.01281-.02704.08123.28125.25 1.22887.18076-.07064-.28844-.28125-.25zm-3.5.0625c-.07091.01253-.0264.07969.28125.25 1.23452.18627-.06852-.28759-.28125-.25zm-7.09375.03125c-.6832.03581-2.82479.57361-1.5625.84375 .18147-.01109.57575.06968.15625-.21875 1.70202-.48352 1.81617-.64648 1.40625-.625zm-16.90625.03125c.02601.02378.11497.09302.3125.1875 1.25457.37258-.09822-.1561-.3125-.1875zm-48.3125.125c-.22678.00154-.29617.23391-.03125.875 2.65397,1.13922.7116-.8796.03125-.875zm59.96875.03125c-.21769.00527-.49561.12648-.71875.46875 1.6882.56551 1.37183-.48455.71875-.46875zm14.96875.03125c-.08751.01203-.05919.10457.15625.34375 1.22792.31502.10629-.37985-.15625-.34375zm-7.96875.0625c-.1932.01162-.39678.19144-.46875.6875 1.72517.78137 1.04835-.72235.46875-.6875zm-11.15625.03125c-.15443.02651-.22421.13423-.0625.40625 1.77361.23513.52579-.48578.0625-.40625zm15.3125.21875c-.56056.06462-2.79872,1.08766-.25.34375 .4194-.2984.43685-.36529.25-.34375zm3.09375.15625c-.1037.03043-.15091.11109-.09375.28125 1.09842.01417.40485-.37254.09375-.28125zm-15.90625.03125c-.18545-.01126-.29856.0863-.1875.375 1.98023.62775.74386-.34122.1875-.375zm-8,.125c-.00013.01528.07504.07408.3125.1875 1.25469.37154-.09851-.15646-.3125-.1875zm-42.65625.0625c-.43654.09344-.30933.45946 1.28125,1.28125 3.34531-.38515-.32086-1.48682-1.28125-1.28125zm72.46875,0c-.19526.11635-.40912.27215-.625.46875 .75522.0508 1.26324-.04537 1.59375-.15625-.32553-.10467-.63952-.20814-.96875-.3125zm-2.90625.0625c-.97389.04144-3.78547.82053-3.3125,1.6875 .57207-.47128 1.30147-.60035 1.96875-.84375 1.85679-.62712 1.92809-.86861 1.34375-.84375zm-22.9375.03125c-.07131.01413-.07752.09959.03125.25 .8804.13506.18269-.2924-.03125-.25zm-57.3125.03125c-.93455.07909-1.01916.51091 1.84375,1.46875 3.61087-.78181-.28616-1.60056-1.84375-1.46875zm25.0625.09375c4.67464-.00491.68005,3.40538-2.125,2-3.48298,3.06578 2.31538.32083 3.59375,2.1875 6.23353,1.77958-4.30499.37628-5.78125.1875 .82929-2.64606-.84945-2.42804-2.65625-.5 1.81451-2.26066-2.85796-2.11985 1.375-2.09375 1.90858-2.8822 1.64949,2.37216 3.65625-.4375-3.7014-2.89484 6.41759,3.30525 1.9375-1.34375zm35.21875.125c-.1467.04464-.2736.17512-.3125.46875 1.33832.1.75261-.60267.3125-.46875zm11.5625,0c-.10808-.00185-.16968.06683-.0625.25 1.23055.34749.38675-.24444.0625-.25zm-71.125.03125c.06613-.0332.2803-.01803.71875.125 .15439.57618-.91713-.0254-.71875-.125zm67.125.0625c-.57471-.01559-1.40001.16749-1.875.75 3.10765-.15196 2.83285-.72401 1.875-.75zm-11.21875.03125c-.21134-.00202-.60834.0825-1.09375.40625 1.26611-.11823 1.44599-.40289 1.09375-.40625zm-59.21875.03125c-.10132-.00565-.19224.02646-.28125.03125l-.4375.09375h-.03125c-.23855.14207-.22859.41365.1875.90625 .2029.48289.79919.77547 1.3125.6875 4.24114-.06516.97888-1.6224-.75-1.71875zm14.65625,0c.07521.00844.20281.04096.34375.09375 .06449.70396-.87019-.15284-.34375-.09375zm52.0625,0c-.19719-.0521-.63493.08102-1.3125.625 1.2705.04879 1.64116-.53816 1.3125-.625zm7.03125.09375c-.10831-.00193-.1694.06638-.0625.25 1.23216.34904.38742-.24421.0625-.25zm3.4375.0625c-.04735-.00316-.01712.03948.21875.1875 .87913.29678-.0767-.17802-.21875-.1875zm-66.90625.03125c-.99192.04061-1.2062.39855 1.46875,1.28125 3.97683-.55656.18445-1.34894-1.46875-1.28125zm73.90625.03125c-.12391.00307-.17424.09151-.03125.375 1.44687.4808.40297-.38421.03125-.375zm3.75,0c-.06348.03023-.07028.10515.0625.21875 .38874.03566.57077.04555.6875.03125l-.75-.25zm-26.53125.125c-.16887.02997-.33145.1637-.40625.46875 1.48649.26139.91285-.55866.40625-.46875zm-56.59375.09375c.07837.00181.21572.02895.375.0625 .30123.57002-.92356-.07516-.375-.0625zm-4.8125.15625c.03046-.0229.24097-.00406.75.09375 .62386.39594-.84137-.02504-.75-.09375zm11.0625,0c.0436-.03942.2849.0029.875.1875 .64361.7107-1.0058-.06924-.875-.1875zm76.34375.0625c-.49921.04318-1.44527.3501-.15625.34375 .58562-.31564.45578-.36966.15625-.34375zm-10.875.0625c-.37276-.03744-1.80617.25655-1.15625.5 1.22501-.32596 1.37991-.47754 1.15625-.5zm6.53125.0625c-.7156-.04075-1.67841.14433-.71875.65625 1.90274-.34891 1.43435-.6155.71875-.65625zm-11.46875.0625c-.25611.04254-.59198.23561-.96875.65625 1.78046.34876 1.73707-.78387.96875-.65625zm-7.5625.0625c-.2614-.02003-.93701.2247-2.0625,1 1.77434-.20589 2.49816-.96661 2.0625-1zm21.96875.0625c-.15892.01179-.29191.1111-.34375.40625 1.43232.41807.82051-.44162.34375-.40625zm4.15625,0c-.01674.0442-.04851.07177-.0625.125 .31214.09508.54154.11467.6875.09375-.21397-.07315-.40801-.14529-.625-.21875zm-30.3125.03125c-.0439-.00124.01107.01937.28125.15625 .90776.2583-.14955-.15253-.28125-.15625zm6.5.21875c-.16303.01779-.2458.18064-.09375.5625 1.83877.51654.58284-.61588.09375-.5625zm11.875,0c-.15922-.01913-.33296.04384-.40625.25 1.39658.55474.88391-.19261.40625-.25zm-71.09375.25c-.86089.05495-1.30308.25295 0,.5625 1.30866-.04479 1.73435-.02828 1.78125,0-.18984.08138-1.62024.28276-.59375.53125 2.78458-.87711.24732-1.18533-1.1875-1.09375zm-11.71875.09375c-.62926.03753-.752.34008.625,1.1875 4.56146-.00739.75938-1.27006-.625-1.1875zm78.5.03125c-.27286-.01771-.62951.10702-.75.46875 1.43377-.05356 1.20477-.43922.75-.46875zm7.09375,0c-.1357-.01327-.21363.06151-.125.28125 1.46221.52288.53209-.24145.125-.28125zm3.5625,0c-.07916-.00927-.14781.04611-.15625.28125 .74473.51224.39372-.25344.15625-.28125zm3.4375.03125c-.04665-.00262-.02102.04038.21875.1875 .87941.28996-.0788-.17964-.21875-.1875zm3.5.0625c-.39665.03446-.60227.17723.09375.5 .86926-.15156.99898-.31043.84375-.40625s-.60696-.12247-.9375-.09375zm-39.09375.09375c1.65805.00361 3.31443.29997 4.96875,1-.19642,1.51667 3.02847,2.1164 3.46875,4.09375-2.8254,3.08608-8.91811-.85467-10.4375-.90625 5.94825,2.3352-3.77465.72749-.21875,3.3125 .8087,1.15428-5.64642-3.02029-8.125-1.84375-2.66439,2.14622-4.20941-2.33321-.15625-2.59375 3.26944-1.65101 6.8523-3.07044 10.5-3.0625zm13,0c-.03448.01591.02542.07375.25.1875 1.83788.39433-.10057-.25644-.25-.1875zm22.21875.03125c-.12283-.01736-.32507.04642-.59375.3125 .69556.64563.96224-.26041.59375-.3125zm-18.3125.03125c-.74409.04324-2.10316.43844-2.40625,1.28125 .48349.56139.83537-.22816 1.125-.46875 2.16107-.55753 2.02534-.85574 1.28125-.8125zm-76.78125.0625c-.03267.05471.21196.2454.9375.65625 4.67162,1.46837-.79595-.89333-.9375-.65625zm88.1875.125c-.43398-.04834-2.85295.40097-.46875.25 .55303-.16981.61341-.23389.46875-.25zm-8.625.03125c-.11129.01221-.21914.11194-.28125.34375 .95653.30007.61511-.38037.28125-.34375zm3.59375,0c-.04777-.00324.01329.06884.25.21875 .88465.30096-.1067-.20902-.25-.21875zm7.75,0c-.1073-.00071-.14305.06713-.03125.25 1.23132.33601.35315-.24786.03125-.25zm-18.9375.03125c-.2094.05425-.43453.20876-.625.5625 1.66742.11592 1.25321-.72526.625-.5625zm-59.03125.125c-1.12666.043-2.56979.44335-.1875,1 .58452.50204 2.99474-.85043.96875-.625 .44395-.28418-.10525-.4008-.78125-.375zm80.9375.03125c-.08752.01329-.0641.13346.15625.375 1.23685.30716.10632-.41488-.15625-.375zm3.625,0c-.17857.02587-.36825.15862-.5.4375 1.47708.25367 1.0357-.5151.5-.4375zm3.84375,0c-.8142.14814-1.60434.43886-.03125.4375 .29068-.09732.43461-.15214.59375-.21875-.17549-.06368-.38362-.15447-.5625-.21875zm-18.875.125c-.1513.04035-.26352.16172-.3125.46875 1.36429.1653.76639-.5898.3125-.46875zm7.4375.03125c-.19223.00348-.39949.10984-.59375.375 1.49571.44391 1.17043-.38543.59375-.375zm-4.1875.0625c-.18384.05786-.35334.24667-.40625.6875 1.66967.23806.95778-.86107.40625-.6875zm-76.28125.0625c-.22881.0049-.23564.23992.25.90625 3.07073,1.15234.43643-.92095-.25-.90625zm83.1875.25c-.13492.02988-.06259.11529.46875.3125 2.25164.06813-.06399-.40214-.46875-.3125zm3.6875,0c-.1117-.00312-.11147.03209.09375.1875 1.44169.30973.24135-.17813-.09375-.1875zm-69.9375.09375c.38286-.09753.55353.34226-.09375,1.8125 1.02606.20675 3.28745-.14267 4.53125,1.25-1.12539.81675-2.74968.36855-4.03125.125-3.16858-.14916-1.24853-2.97294-.40625-3.1875zm62.5,0c-.1079-.00091-.1422.06575-.03125.25 1.23557.34042.35495-.24726.03125-.25zm-89.4375.03125c-.9017.00854-1.80647.36085.1875,1.03125 .27161-.02549 2.81261-.64046.8125-.6875 .09484-.23069-.45898-.34888-1-.34375zm82.1875.03125c-.08435-.01426-.28744.05048-.5625.21875 .53762.00568.70309-.19498.5625-.21875zm17.78125,0c-.08676.01387-.09944.10236.125.34375 1.23686.30136.13527-.38536-.125-.34375zm3.9375.03125c-.80725.11443-2.14416.56565-.6875.65625l.0625-.03125c.54276-.21185.84567-.36672 1-.46875-.12473-.04695-.24796-.10882-.375-.15625zm-7.84375.09375c-.446.02954-.73458.09603.46875.15625 .58067-.17838-.02275-.18579-.46875-.15625zm-22.28125.0625c-.11096-.00287-.16594.06122-.0625.25 1.25141.36738.39538-.24138.0625-.25zm14.5.125c-.2108.03275-.36196.1541-.25.4375 2.22522.19569.8824-.53576.25-.4375zm2.90625.03125c-.07644.01001-.05123.10378.25.28125 1.27607.22332-.02067-.31129-.25-.28125zm4.40625,0c-.13133.00444-.21116.09137-.1875.34375 1.30333.41161.58148-.35708.1875-.34375zm3.5.03125c-.04666-.00248-.02307.03953.21875.1875 .88323.29012-.07876-.18007-.21875-.1875zm-102.65625.09375c-.45699.05522-.69544.30582-.34375.96875 1.59298.80892 1.83096.43768.8125-.71875 4.29566,1.31834.90223-.41565-.46875-.25zm80.34375,0c-.04356-.00091.04076.05105.3125.1875 .9073.25435-.18182-.18477-.3125-.1875zm-68.28125.03125c-1.54128-.07714-2.96685.23672.34375,1.125 2.85453-.57973 1.19753-1.04786-.34375-1.125zm71.75.09375c-.1379.02702-.27169.12749-.28125.375 1.30665.18615.69496-.45605.28125-.375zm18.4375,0c-.18766.03085-.44546.17377-.75.53125 1.25334.34732 1.31297-.6238.75-.53125zm-90.78125.125c.04613-.04012.31009.0253.90625.21875 .63026.73331-1.04463-.0984-.90625-.21875zm68.3125,0c-.16417.01426-.35694.1414-.5.46875 1.31856.45228.99252-.51154.5-.46875zm18.46875.0625c-.02288.03378.01785.11299.1875.25 1.33737.23989-.08836-.39638-.1875-.25zm-11.59375.1875c-.49224.0606-1.29429.37229-2.375,1.125 2.9538-.18724 3.45792-1.25833 2.375-1.125zm-78.5.0625c-.95354.07163-1.26298.46211 1.0625,1.40625 3.92056-.73849.52673-1.52563-1.0625-1.40625zm-11.65625.125c-.60619.04717-.55029.41533 1.28125,1.34375 4.53803-.04823.05238-1.44753-1.28125-1.34375zm107.4375.0625c-.04668-.00241-.02405.03906.21875.1875 .88522.29039-.0787-.18025-.21875-.1875zm-21.78125.03125c-.10812-.0018-.19313.08352-.15625.3125 1.1043.42947.4806-.30709.15625-.3125zm14.96875.03125c-.1028.02016-.13304.11605-.03125.3125 1.17014.16006.33966-.37298.03125-.3125zm2.84375.15625c-.09784.04829-.14999.19029-.09375.5 1.04047.09395.38726-.64486.09375-.5zm11.09375.03125c-.21149.11361-.44452.27129-.6875.53125 .66386-.02706 1.10465-.15354 1.34375-.28125-.21636-.092-.42359-.15392-.65625-.25zm-102.5.0625c.04677-.04035.27778-.00771.875.1875 .62595.73873-1.01533-.06646-.875-.1875zm27.40625.03125c.07551.00768.20108.04178.34375.09375 .08678.71479-.8723-.14749-.34375-.09375zm60.03125,0c-.13644-.01288-.21619.05903-.125.28125 1.47393.52363.53431-.24262.125-.28125zm-7.9375.28125c-.17327.01515-.41952.17227-.71875.53125 1.12476.50072 1.23856-.5767.71875-.53125zm-93.9375.0625c-.68679-.01898-.8864.29168.375,1.3125 4.90973.41641 1.13594-1.27074-.375-1.3125zm62.84375.125c-.07728.03756-.11241.14486-.0625.34375 1.52775.53277.39739-.50652.0625-.34375zm-50.34375.0625c-.20115.00602-.42481.05696-.65625.09375 .0805.00189.18139.02784.34375.0625 .24494.50403-.60611.08726-.5-.03125-.96149.18197-1.72793.56261.46875.875 2.22981.52383 2.69257-1.45564-.03125-.34375 1.3392-.50043 1.03487-.67601.375-.65625zm88.71875.0625c-.79522.09387-2.23082.51678-.15625.375 .87936-.36364.63338-.43132.15625-.375zm2.96875,0c-.57959-.02074-1.04469.01883.3125.1875 .96119-.08572.26709-.16676-.3125-.1875zm11.1875.03125c-.5577.01531-1.05541.14112.1875.3125 .9879-.23262.3702-.32781-.1875-.3125zm-8.03125.0625c-.04701-.00252.00738.0378.25.1875 .88802.29364-.10897-.17995-.25-.1875zm10.875,0c-.08613.0149-.07601.10068.15625.34375 1.24493.29446.10215-.38846-.15625-.34375zm-121.28125.03125c-.15988-.0041-.31471.08043-.375.34375 1.42631.51337.85464-.33144.375-.34375zm91.875.03125c-.03489.02397-.00265.12525.15625.3125 1.46903.6847-.00507-.41638-.15625-.3125zm-88.03125.09375c.1083.01668.27412.0782.5.15625 .52473.89609-1.25809-.27303-.5-.15625zm95.3125,0c-.07785.00981-.05193.06871.25.25 1.29081.23212-.01646-.27944-.25-.25zm21.21875.3125c-.17483.03692-.38801.19199-.5625.53125 1.36429.25621 1.08699-.64202.5625-.53125zm-56.375.03125c-.07694.01323-.10408.09113 0,.25 .92593.159.23081-.28968 0-.25zm34.46875,0c-.10793.02723-.18902.11949-.21875.375 .98265.19852.54255-.45669.21875-.375zm-86.34375.03125c-.75129.04732-1.983,1.6115.65625,1.1875 .77972-.40084 4.28499-.83752-.21875-.59375 .01969-.45057-.18707-.60953-.4375-.59375zm90.15625,0c-.12274.00855-.22197.10491-.25.34375 1.1278.34781.61821-.36941.25-.34375zm-7.15625.03125c-.13383.0018-.28975.0457-.40625.21875 1.07509.29424.80775-.22414.40625-.21875zm10.625,0c-.14536.04802-.27848.18947-.34375.5 1.27796.09792.77983-.64407.34375-.5zm-104.875.03125c-.05848.05529.06017.23785.46875.5625l.09375.03125c3.18417.93306-.30908-.83335-.5625-.59375zm115.8125,0c-.04666-.00225.00478.03832.25.1875 .88933.29014-.11002-.18075-.25-.1875zm6.71875.21875c.0233.0684.03904.16085.09375.25 .12661-.00337.18231-.02222.28125-.03125-.11483-.07747-.21766-.12914-.375-.21875zm-30.03125.125c-.04367-.00074.0074.01864.28125.15625 .91218.25482-.15023-.15402-.28125-.15625zm15.1875.0625c-.10098.0223-.24365.07488-.40625.1875 .67676-.01138.7092-.2544.40625-.1875zm6.875,0c-.11722-.01764-.22257.05216-.25.28125 1.07596.58168.60166-.22834.25-.28125zm-11.03125.03125c-.10393.00086-.11548.06286.09375.1875 1.37438.21609.21805-.19008-.09375-.1875zm14.25.09375c-.0869.01498-.07441.1305.15625.375 1.2494.29627.10444-.41995-.15625-.375zm-120.15625.03125c-.52693.06992-.5052.3774 1.03125,1.0625 3.92881-.26822.128-1.21632-1.03125-1.0625zm123.15625.03125c-.17442.01904-.31797.18023-.28125.5625 1.7405.50534.8045-.61961.28125-.5625zm-25.3125.0625c-.03426.02445-.00399.12522.15625.3125 1.46665.67724-.00777-.41844-.15625-.3125zm-86.6875.03125c-1.22368.12401-3.19396.97067-.375,1.28125 1.50312.27593 2.91956-1.39469.5625-.46875 1.00384-.69036.54671-.8869-.1875-.8125zm97.96875.03125c-.10823-.00014-.17679.0637-.0625.25 1.2447.33673.38718-.24957.0625-.25zm-7.40625.0625c-.40814.01897-1.25793.29976-2.34375,1.03125 2.50397-.38662 3.02398-1.06287 2.34375-1.03125zm14.0625.125c-.13201.00532-.24731.11982-.21875.375 1.31869.40829.61477-.39095.21875-.375zm3.3125.25c-.11189-.00231-.11565.06209.09375.21875 1.45108.30418.24192-.21182-.09375-.21875zm2.78125.1875c-.35152-.0229-.49782.06565.1875.46875 1.51354-.04364.39836-.43058-.1875-.46875zm-115.375.03125c-.43919.0414-.56408.28809.09375.84375 .4538.47053 3.09489.87037 1.21875-.34375 4.31125.90268.00508-.62421-1.3125-.5zm-9.15625.03125c-.89431.04606-1.19695.3231.90625,1 3.70791-.50258.58426-1.07677-.90625-1zm24.25,0c-.02578.03109.15071.12325.6875.28125 1.21374-.0141-.61015-.37453-.6875-.28125zm96.28125,0c-.17932.02531-.24206.14137.03125.40625 2.21345.23381.50672-.48218-.03125-.40625zm-2.5625.125c-.82137.07755-2.5886.46771-.5625.375 1.20239-.36192 1.05532-.42153.5625-.375zm-8.25.03125c-.10883-.00034-.1759.06231-.0625.25 1.24892.34113.389-.24897.0625-.25zm-113.78125.15625c-.0767.01136-.13161.04084-.1875.0625l1.28125.34375 .1875-.03125c.28523.02515.21052.05788.03125.09375 .735.2058 1.17202.35235 2.125.625 2.24855.06101-2.07572-1.29544-3.4375-1.09375zm131.46875.03125c-.34245.16121-.65513.32397-.6875.40625 .20565-.13209.51708-.29201.6875-.40625zm-26.125.0625c-.04364-.00061.03741.04963.3125.1875 .91411.254-.18158-.18568-.3125-.1875zm22.46875,0c-.04674-.00213.00247.03723.25.1875 .89423.29093-.10979-.18111-.25-.1875zm-4.125.09375c-.14977.04522-.30565.18135-.375.46875 1.31293.08325.8243-.6044.375-.46875zm-96.5625.03125c-.11466.03513-.25933.16998-.40625.4375 .83631.14426.75024-.5429.40625-.4375zm85.5.09375c-.10918-.00046-.1754.06153-.0625.25 1.25135.34364.39004-.24863.0625-.25zm14.34375,0c-.44966.03436-.74978.10457.46875.15625 .5801-.18914-.01909-.19061-.46875-.15625zm-.28125.21875c-.07149.0117-.08906.12355 0,.34375 .84667.28401.21448-.37886 0-.34375zm-7.375.03125c-.1916-.01231-.37511.06613-.40625.25 1.78327.44916.98104-.21306.40625-.25zm-94.34375.03125c-.28416-.02688-.45713.0793.03125.5 1.24956-.03041.44235-.4552-.03125-.5zm5.71875,0c-.28194-.00066-.87537.1222-1.6875.53125 1.75435-.15899 2.1574-.53016 1.6875-.53125zm85.375,0c-.20686.01014-.41323.06057-.46875.09375 .0231.02742.16416.06299.46875.09375 .84265-.16313.41372-.20778 0-.1875zm-104.75.03125c-.4236.03845-.71016.24779-.59375.84375 .75031.57654 2.54351.60904.78125-.46875 3.5706,1.14262 1.0833-.49035-.1875-.375zm97.6875.125c-.25196-.04302-2.78075.26973-.75.1875 .68027-.12217.83399-.17316.75-.1875zm13.0625.125c-.17932.00853-.34011.13215-.3125.46875 1.77113.52401.85045-.49433.3125-.46875zm-7.65625.1875c-.40137.04677-1.04111.31662-1.8125,1 2.43978-.11535 2.6955-1.1029 1.8125-1zm3.75.0625c-.07282.01105-.08368.08918 0,.3125 .84972.29592.21846-.34564 0-.3125zm-56.40625.03125c.23755.00191.78001.152 1.5625.625-1.51711-.19742-1.95842-.62819-1.5625-.625zm-38.5625.0625c-.76121.0011-2.41784.28486-3.53125,1.1875 .57684.62416 1.15227-.55114 1.65625-.65625 2.50266-.2503 2.63621-.53235 1.875-.53125zm102.28125,0c-.56623.00142-1.37047.21367-.75.65625 1.64443-.44826 1.31623-.65767.75-.65625zm-97.8125.03125c-.89399-.05844-1.53064,1.0088.875.53125-.25284-.3692-.577-.51177-.875-.53125zm60,0c1.03842.03034 2.17289.27417 3.125.71875-2.37195.74868-4.48828,2.52155-7.09375,2.46875-3.84262-.73712-2.11068-2.59694.96875-1.5-.17534-1.19505 1.26929-1.73806 3-1.6875zm-55.0625.15625c-.09298.00766-.04325.09372.25.25 1.42049.20774.02895-.27299-.25-.25zm77.53125.0625c-.13335.01305-.31749.10694-.46875.3125 1.00786.24469.86879-.35166.46875-.3125zm-102.0625.0625c-.79705.02433-1.11283.28718.34375,1l.40625.125c3.36653-.46127.64856-1.16769-.75-1.125zm23.46875.0625c-.10593.00975-.26247.06277-.46875.1875 .64561.13096.78654-.21674.46875-.1875zm86,.03125c-.78065.07695-2.13404.95986.4375.28125 .04081-.2402-.17728-.3069-.4375-.28125zm-79.28125.03125c2.25654.73674 1.98394,1.13447 0,0zm66.9375.03125c-.11098-.00131-.17188.08943-.0625.28125 1.26228.35782.39543-.27733.0625-.28125zm14.9375,0c-.18138.05192-.34204.2196-.4375.53125 1.5694.0625.98163-.68703.4375-.53125zm-111.8125.03125c.09333-.04255.38177-.0004.96875.21875 .16062.80297-1.24873-.09109-.96875-.21875zm119.03125.125c-.58116.07073-1.42547.38195-2,1.0625 3.17993-.62931 2.96861-1.18038 2-1.0625zm-101.71875.0625c-.21515-.00377-.81648.19891-2.03125.78125 1.0797.19078 2.50458-.77295 2.03125-.78125zm34.21875.03125c.69868-.15808 4.77049.90027 5.9375,1.53125-.99369,1.27647-2.99764-.07929-4.1875-.40625-1.67588-.72237-2.06758-1.05314-1.75-1.125zm63,.03125c-.03104.01878-.00348.07276.15625.21875 1.41186.53234-.02175-.30015-.15625-.21875zm-92.125.03125c-.12591-.00955-.22556.03963-.15625.25 1.33353.47038.53399-.22134.15625-.25zm81.3125.1875c-.06911.01768-.05741.09897.0625.25 .87929.10213.14483-.30304-.0625-.25zm-7.46875.09375c-.87474.09332-2.55669.46871-.3125.3125 1.06269-.323.83735-.36849.3125-.3125zm10.3125.0625c-.15494-.01191-.23323.03554-.0625.21875 1.79471.44411.52731-.18302.0625-.21875zm-3.6875.03125c-.04361-.00041.03526.04914.3125.1875 .91767.25295-.18167-.18628-.3125-.1875zm-77.34375.03125c-1.28097.03728-5.19479.79311-4.375,1.6875 .60888-.53206 1.48334-.62954 2.25-.84375 2.71562-.62133 2.89358-.86612 2.125-.84375zm84.46875,0c-.04978.0262-.014.11484.1875.28125 1.95193.52972.02823-.3948-.1875-.28125zm3.21875.21875c-.18988.02067-.34225.12915-.375.46875 1.76395.41286.94465-.53075.375-.46875zm-14.78125.09375c-.10638.0005-.11723.05912.09375.1875 1.40101.22626.22539-.18901-.09375-.1875zm-89.625.15625c-.9952.01075-2.72525.32001-3.3125,1.21875l.96875-.25 1.21875-.3125c2.38083-.36497 2.1202-.667 1.125-.65625zm106.96875,0c-.04736-.00225.00208.03439.25.1875 .90088.29723-.10793-.18074-.25-.1875zm-21.78125.125c-.59468.00863-1.19397.14107-.03125.375 1.21601-.26845.62593-.38363.03125-.375zm15.03125,0c-.13089.02063-.18809.08552-.03125.25 1.53886.09801.42393-.31189.03125-.25zm-8.28125.21875c-.04387-.00045.0347.04792.3125.1875 .92119.25557-.18089-.18615-.3125-.1875zm-73.21875.09375c-.87623.08398-2.2535.56788.53125.09375-.01065-.1141-.23917-.12175-.53125-.09375zm87.59375.0625c-.04316-.00012.03288.0508.3125.1875 .9176.24722-.18303-.18714-.3125-.1875zm-103.875.0625c-.22407.02795-.36778.17272-.25.46875 2.36312.26449.92222-.55261.25-.46875zm6.125.03125c-.39806-.01036-2.47509.53942-.375.25 .45906-.1792.50768-.24655.375-.25zm74.90625.03125c-.27655.06416-.59961.28307-.90625.6875 2.10295.11203 1.73591-.87998.90625-.6875zm6.9375.15625c-.07005.0163-.02416.11257.21875.28125 2.5144.70198.08479-.35188-.21875-.28125zm14.90625.15625c-.40934.01945-.86821.19816-.875.71875 2.0819-.30538 1.55724-.75117.875-.71875zm-94.59375.09375c-.11508-.00236-.15497.11398.03125.40625 1.43997.54874.31399-.39917-.03125-.40625zm75.34375.03125c-.04438-.00061.03435.04585.3125.1875 .92671.26087-.17936-.18566-.3125-.1875zm4,.09375c-.28825-.03437-.32866.0456.53125.4375 1.12291.01905-.05083-.38022-.53125-.4375zm-84.40625.0625c-.10776.02956-.04962.09283.375.21875 1.79883-.05714-.05172-.30744-.375-.21875zm72.5625.03125c-.07316.01638-.08269.09314.03125.25 .90748.12513.18824-.29913-.03125-.25zm-62.90625.03125c-.45905.02682-.61245.12272.4375.28125 1.91501-.19912.32757-.32595-.4375-.28125zm70.03125,0c-.1103-.00094-.19388.07575-.15625.3125 1.1266.43513.48715-.30969.15625-.3125zm-65.1875.03125c-.13363-.02021-.27767.05362-.375.28125 1.10769.60379.7759-.22061.375-.28125zm69.21875.0625c-.07418.01378-.0884.09014 0,.3125 .8713.26793.22255-.35385 0-.3125zm3.90625.0625c-.38724.02643-.69999.10716-.375.3125 1.83798-.21573 1.0204-.35655.375-.3125zm-84.375.0625c-.40547-.03537-.65381.08167 0,.46875 1.8001.02605.67579-.4098 0-.46875zm68.3125.0625c-.22641.00952-.4042.1053-.40625.375 2.16983.39405 1.08548-.40357.40625-.375zm-76.96875.03125c-.34468.01855-1.08799.09266-1.9375.25l.5.15625c.98051-.18989 1.55787-.35398 1.625-.40625-.03298-.00707-.09115-.00518-.1875,0zm18.40625.03125c-.1543.00584-.31432.09897-.34375.40625 1.42834.49708.80666-.42376.34375-.40625zm-4.25.0625c-.33533.07269-1.0379.30729-2.28125.78125 .98117.15528 3.28725-.99932 2.28125-.78125zm-11.09375.0625c-.12736-.00959-.18722.0662-.125.28125 1.33464.47919.50708-.25247.125-.28125zm19.84375.0625c-.12593-.00902-.20091.03873-.125.25 1.34558.4669.5028-.22293.125-.25zm72.625.03125c-.04386-.00032.00194.04755.28125.1875 .92385.25502-.14966-.18653-.28125-.1875zm-14.9375.125c-.43588.0101-1.24968.16948-1.125.5 1.61883-.37092 1.56088-.5101 1.125-.5zm22.625,0c-1.0148.16583-2.94299.84271-.34375.5625 1.24357-.56744.95263-.662.34375-.5625zm-96.25.03125c-.07555.02025-.14045.11292-.09375.3125 1.48149.81504.42113-.40024.09375-.3125zm68.59375,0c-.04534-.00095.03351.04229.3125.1875 .9374.27051-.17649-.18465-.3125-.1875zm-73.40625.09375c-.447-.0533-1.07346.07608-1.53125.59375 .14931.04944.28862.10664.4375.15625 1.99593-.08104 1.84476-.66045 1.09375-.75zm103.46875.0625c-.10463.01104-.18229.05568-.21875.125l.21875-.125zm-88.53125.0625c-.72567-.05486-2.81378.67935.03125.375 .2905-.26662.21064-.35671-.03125-.375zm65.5625,0c-.03587.0255-.00251.11803.15625.3125 1.48402.70139-.0008-.42301-.15625-.3125zm-61.3125.0625c-.13344-.01393-.2078.03391-.0625.21875 1.54255.46641.46281-.17697.0625-.21875zm-10.9375.03125c-.11567.01903-.16889.16024-.0625.5625 1.3019.54139.4095-.61959.0625-.5625zm80.71875.09375c-.46535.00997-2.07715.57811-1.25.8125l.09375-.0625c1.31594-.57782 1.43546-.75598 1.15625-.75zm-70.59375.0625c-.1265-.00915-.19936.06878-.125.28125 1.34824.47023.5045-.25382.125-.28125zm65.90625,0c-.04455-.00057.00195.04481.28125.1875 .93046.26236-.14759-.18577-.28125-.1875zm-81.15625.03125c-.47389-.02846-.85688.08513-.4375.46875 2.24064-.00766 1.22732-.42131.4375-.46875zm68.78125.03125c-.02867.01219.07198.04184.34375.125 2.01415.27928-.2195-.17781-.34375-.125zm7.84375.0625c-.05406.01192-.02325.10211.1875.34375 .89837.32057-.02531-.37949-.1875-.34375zm-57.125.0625c-.04708.03838-.00886.14929.125.34375 1.52187.49431.07899-.51006-.125-.34375zm69.375,0c-.5054.02481-1.46469.29775-1.34375.71875 1.90067-.52026 1.84915-.74356 1.34375-.71875zm10.09375,0c-.0744.00432-.02096.07175.125.1875l.1875-.09375c-.13552-.04219-.25023-.09736-.3125-.09375zm-19.25.09375c-.12896-.01082-.14756.07606.15625.28125 1.78488.47323.23063-.24878-.15625-.28125zm-49.375.09375c2.58577.33154.13271.62998 0,0zm41.46875.03125c-.07382.0405-.12458.14213-.0625.34375 1.54153.50108.38237-.51926.0625-.34375zm-26.34375.03125c2.75589-.24125-3.90142,1.82901-2.46875,4.09375 .36322.75535-4.46095-.207-2.875-1.71875-2.56733-1.67596 2.63626.66499 3.53125-2.125 .82863-.13403 1.4188-.21554 1.8125-.25zm-27.125.09375c-.04742.03844-.03952.14877.09375.34375 1.524.49637.11173-.51031-.09375-.34375zm48.9375.03125c-.0856.01255-.0521.0898.25.28125 1.3655.22409.00679-.31891-.25-.28125zm23.5625,0c-.04401-.00029.0009.04667.28125.1875 .92713.25625-.14922-.18664-.28125-.1875zm-78.84375.15625c-.1023.03446-.08033.12239.15625.28125 2.9968.35381.28707-.43058-.15625-.28125zm48.25.0625c-1.05476.07403-2.68052.48747-2.34375,1.34375 .74539.52506.83773-.39168 1.34375-.5625 2.54414-.58263 2.05476-.85528 1-.78125zm37.90625,0c-.00397.01143.04496.0095.09375.03125 .02857-.01559.06521-.01566.09375-.03125-.06852.00044-.18226-.01507-.1875,0zm-23.1875.0625c-.15648-.01524-.24701.02533-.09375.21875 1.77811.49448.5632-.17302.09375-.21875zm-67.28125.03125c-.85268.07195-3.87716.77844-5.03125,1.34375 1.14509-.05895 2.25833-.30169 3.34375-.625 1.90938-.58671 2.19911-.76192 1.6875-.71875zm9.25,0c-.1501.02024-.1396.1145.1875.375 2.02974.27463.2628-.43571-.1875-.375zm-13.9375.03125c-.72607.08703-2.11059.38475-3.4375.75 .18994.06749.40606.12001.59375.1875 .387-.11134.76683-.23945 1.15625-.34375 2.45528-.5523 2.56197-.69857 1.6875-.59375zm67.96875.03125c-.32166-.03253-.90384.1261-1.5625.6875 1.89518-.05755 2.09859-.63329 1.5625-.6875zm22.34375.03125c-.04393-.00022.03154.04687.3125.1875 .92747.25524-.1807-.18684-.3125-.1875zm-26.9375.0625c-.24767.04013-.5372.23412-.78125.625 1.93836.31838 1.52427-.74537.78125-.625zm-45.5625.125c-.16743-.0247-.27386.03972-.15625.25 1.81901.61567.65854-.17589.15625-.25zm53.5625,0c-.11442-.00225-.1682.08253-.0625.28125 1.28869.37928.40576-.27451.0625-.28125zm8.375.03125c-.93568.05703-3.39335.76611-1.28125.875 1.86353-.71237 1.84266-.90922 1.28125-.875zm-66.65625.0625c.02397.02664.07593.07781.28125.1875 1.36544.45194-.03934-.14499-.28125-.1875zm74.21875.03125c-.66905-.01317-2.44.23195-.9375.375 1.35198-.25935 1.33893-.3671.9375-.375zm-75.5.15625c-.07448.02741-.02607.12809.1875.3125 2.41789.6133.13523-.43126-.1875-.3125zm62.65625,0c-.04506-.00067.03206.0426.3125.1875 .93733.26727-.17733-.18548-.3125-.1875zm7.3125.0625c-.19398.01874-.35673.13372-.4375.4375 1.71683.36688 1.01944-.49373.4375-.4375zm-20.5.09375c.02714.0259.10667.11682.3125.21875 1.30658.39697-.08944-.18643-.3125-.21875zm12.5.0625c-.02172.0363.02863.1356.21875.28125 1.43575.24881-.12463-.43854-.21875-.28125zm-68.53125.0625c.0233.02674.07708.10827.28125.21875 1.36855.45702-.03733-.17536-.28125-.21875zm83.9375.0625c-.36126-.04484-.98001.16324-1.65625.875 2.10331-.0547 2.25835-.80027 1.65625-.875zm-73.34375.0625c-.16571.01055-.36751.12236-.5625.34375 1.23979.29726 1.05961-.37539.5625-.34375zm53.3125,0c-.04555-.00085.00041.04079.28125.1875 .94276.27224-.14461-.18495-.28125-.1875zm15.75.03125c-.19738-.00916-.31732.04273-.21875.21875 2.0723.40479.8109-.19127.21875-.21875zm7.875,0c-.37512.00693-1.18583.29935-2.375,1.125 .47545-.07257.87822-.15441 1.21875-.25l.09375-.03125 1.28125-.6875c.02263-.08546-.05203-.15933-.21875-.15625zm-72.59375.03125c-.21234.02773-.47937.13918-.71875.375 1.60754.15823 1.35576-.4582.71875-.375zm22.90625.09375c.02437.04027-.21124.23133-.96875.75-1.59747.54703.89564-.87081.96875-.75zm30.03125,0c-.9504-.00369-3.22005.5611-.96875.8125 1.62579-.6052 1.53899-.81029.96875-.8125zm-4.3125.15625c-.11076-.00055-.11949.05368.09375.1875 1.44715.24618.23853-.18585-.09375-.1875zm-.875.15625c-.23964.02735-.4968.16512-.75.5 1.84481.34018 1.46893-.58206.75-.5zm15.9375.0625c-.28338-.00234-.86957.21362-1.84375.8125 1.6003.186 2.46719-.80736 1.84375-.8125zm-74.03125.03125c-.52216-.0194-4.57231.76844-1.0625.375 1.02162-.25306 1.23655-.36853 1.0625-.375zm20.90625,0c-3.36014.83138-4.53383-.02154 0,0zm48.90625.09375c-.17915.02285-.38188.15404-.53125.5 1.45094.40339 1.06869-.56855.53125-.5zm-75.59375.03125c-.39088.01785-.81377.06148-.90625.09375 .06619.01288.22763.02248.5.03125 1.62971-.15927 1.08605-.15605.40625-.125zm48.0625.03125c-1.0517.10847-3.03817.63592-4,1.53125 .8133-.02086 1.58669-.27449 2.34375-.53125 2.82522-.7862 2.70795-1.10847 1.65625-1zm-33.5.09375c-.50693.05308-3.04695.86982-.4375.28125 .54849-.23263.60648-.29894.4375-.28125zm40.75.09375c-.45406.00914-.84092.1117.21875.25 .75657-.17485.23531-.25914-.21875-.25zm-47.09375.09375c-.12758-.00905-.19946.06584-.125.28125 1.3588.47462.50774-.2541.125-.28125zm63.53125,0c-.50878-.01094-3.56158.75706-.65625.34375 .70958-.24906.82584-.3401.65625-.34375zm-5.34375.03125c-.25011.06997-.51784.27395-.71875.6875 2.03941.07266 1.46908-.89742.71875-.6875zm-12.59375.0625c-.01938.03248.06033.12985.3125.3125 1.75281.52158-.2285-.45327-.3125-.3125zm29.40625,0c-.53375.03397-2.06836.35362-.90625.375 1.17068-.31478 1.2265-.39538.90625-.375zm2.28125.125c-.26828-.03454-.48071.11913-.1875.6875 .22191-.00892.38476-.02595.5-.0625l.1875-.09375c.21792-.1912-.18701-.49095-.5-.53125zm-23.84375.03125c-.15173.02098-.19744.13394-.03125.40625 1.75573.2887.48643-.46921.03125-.40625zm12.40625,0c-.6101.0012-1.92179.40423-2.625,1.375l1.09375-.375c2.06131-.61934 2.14135-1.0012 1.53125-1zm-62.0625.03125c-.08887.00908-.13663.10221-.09375.34375 .93038.34762.36037-.37099.09375-.34375zm-10.78125.03125c-.11266.02918-.17229.1413-.09375.40625 1.22292.19675.43173-.4938.09375-.40625zm5.75.09375c-.10789.01032-.29151.0572-.5.1875 .66049.13542.82368-.21847.5-.1875zm70.53125.0625c-.11313-.00085-.17374.05186-.0625.25 1.28625.36479.40188-.24746.0625-.25zm-61.40625.1875c-.1123.0129-.29599.0713-.5625.21875 .59832.14155.89939-.25746.5625-.21875zm9.84375,0c.10025-.00707.22198.00639.40625.03125 .01788.71216-1.10803.01824-.40625-.03125zm26.34375,0c-.06265.0304.1001.13335.65625.375 1.6025.14315-.4683-.46619-.65625-.375zm28.15625.03125c-.11161.02897-.12997.15238.0625.46875 1.41787.29135.27232-.55566-.0625-.46875zm-15.71875.03125c-.09235.0122-.06576.08394.1875.28125 1.34241.23806.08954-.31784-.1875-.28125zm19.15625,0c-.05191.02718.01616.10775.21875.28125 1.9924.55449.0062-.39905-.21875-.28125zm-63.78125.0625c-.03189.03534.03663.12476.21875.28125 1.5535.32619-.08057-.43438-.21875-.28125zm-9.125.0625c-.90764.02585-2.99035.31123-.8125.34375 1.48248-.2805 1.35708-.35926.8125-.34375zm57.96875.03125c-.41749.0365-1.44647.38845-3.0625,1.3125 2.76189-.55209 3.75832-1.37334 3.0625-1.3125zm-5.15625.03125c-.08067.05603-.093.24597.09375.65625 1.11054.20062.14825-.82434-.09375-.65625zm-64.59375.03125c-.10076.01458-.11952.12426.0625.3125 2.66014.84141.37412-.37568-.0625-.3125zm5.1875.03125c-.11302.02524-.11868.11366.09375.34375 1.46742.17184.24533-.41948-.09375-.34375zm10.65625,0c-.08858.00931-.13872.10213-.09375.34375 .93135.34557.3595-.37167.09375-.34375zm41.21875.03125c-.5241.06774-1.32376.33947-2.125.96875 .18918.40369.92057.193.75-.21875 2.29114-.38432 2.24849-.8629 1.375-.75zm-4.96875.1875c-.42929-.01961-.88922.10441-.78125.5625l.53125.1875-.375-.4375c1.98814.14122 1.34049-.27982.625-.3125zm-33.125.03125c-.29006.00023-.19415.06484 1.09375.3125 .96224-.09943-.61032-.31288-1.09375-.3125zm65.0625,0c-.33314-.06138-.93276.12184-1.53125.8125 1.92962.03769 2.08648-.7102 1.53125-.8125zm-40.28125.0625c-.17908.03705-.3714.19994-.46875.5625 1.54397.29689 1.006-.67366.46875-.5625zm32.21875.03125c-.13186.00408-.21626.10497-.125.375 1.43014.44692.52059-.38723.125-.375zm-16.46875.09375c.01861.02475.15813.08779.5.1875 1.52729.15878-.27912-.21267-.5-.1875zm-50,.0625c-.25699-.05929-.94719.09224-2.1875.75 1.79752.04013 2.61581-.65118 2.1875-.75zm8.75,0c-.16832-.02443-.24547.03739-.125.25 1.83267.61724.62995-.1767.125-.25zm61.78125,0c-.6609.02239-1.48252.12865-.46875.28125 1.62981-.24215 1.12965-.30364.46875-.28125zm-76.90625.28125c-.09068.00908-.16062.09907-.125.34375 .93466.35327.39705-.37098.125-.34375zm67.53125.09375c-.15526.01341-.27113.15316-.28125.46875 1.47233.43938.74704-.50897.28125-.46875zm-29.09375.21875c-.38632.02691-1.03936.29722-1.96875.96875 2.28293.01499 2.82636-1.02849 1.96875-.96875zm12.09375,0c-.14456.02419-.19139.16196 0,.46875 1.7323.31999.43369-.54132 0-.46875zm4.09375.0625c-.25033.0059-.54762.12375-.875.5 1.81391.62063 1.626-.5177.875-.5zm23.625,0c-.10434.04195-.04977.18217.40625.5 1.82252.16937-.09323-.62585-.40625-.5zm-31.625.03125c-.45432.00742-.83241.10474.21875.25 .76614-.17495.23557-.25742-.21875-.25zm12.15625,0c-.10178.01421-.12252.11537.09375.375 1.36634.33094.21158-.41763-.09375-.375zm-40.125.03125c-.59246-.01327-2.12063.30254-3.46875,1.125l.65625-.09375 .65625-.15625c2.39632-.52139 2.74871-.86173 2.15625-.875zm-5.8125.0625c-.61467-.00242-.97557.06837.8125.1875 .6706-.10944-.19783-.18508-.8125-.1875zm57.4375,0c-.04546-.00054.02895.03996.3125.1875 .94678.27077-.17613-.18588-.3125-.1875zm-67.09375.15625c-.58908.0089-1.2349.12733-.125.3125 1.24641-.22079.71408-.3214.125-.3125zm71.34375,0c-.39107.02961-1.13782.29083-2,.9375 2.32851-.40701 2.65178-.98685 2-.9375zm-29.34375.09375c-.17884.064-.3366.26628-.40625.625 1.5915.03128.94277-.817.40625-.625zm-38.5625.03125c-.05144-.00254.02795.05433.3125.21875 1.00605.32032-.15817-.21114-.3125-.21875zm51.375,0c-.08136.01339-.0554.07283.25.21875 1.33074.13414-.00593-.25891-.25-.21875zm19.53125.0625c-.12953.00957-.24998.12306-.28125.375 1.18723.36158.66985-.40372.28125-.375zm-28.03125.0625c-.60151.02963-1.03679.13771.53125.25 .83798-.23081.07026-.27963-.53125-.25zm15.71875.03125c-.09232.01855-.0399.15006.34375.53125 1.57687.50804-.06678-.58691-.34375-.53125zm3.9375.09375c-.19125.03168-.21111.11283.09375.25 2.38475-.05717.48-.34503-.09375-.25zm-21.125.03125c.02696.02663.10428.11329.3125.21875 1.33155.41406-.08379-.18427-.3125-.21875zm-48.09375.125 .4375.25c.55877.15433-.2466-.21389-.4375-.25zm56.5625.09375c-.16994.03114-.3482.19627-.46875.5625 1.41442.36027.97857-.65592.46875-.5625zm20.21875,0c-.04513-.00033-.00327.07212.28125.21875 .94535.26705-.14587-.21778-.28125-.21875zm-16.34375.0625c-.40576-.03041-.66631.0978-.0625.53125 1.82139-.01752.73876-.48056.0625-.53125zm-50.71875.03125c-.12819-.00588-.27075.10175-.34375.375 1.09921.54825.72832-.35738.34375-.375zm42.78125.03125c-.45361.00975-.8355.07838.21875.21875 .76018-.17937.23486-.2285-.21875-.21875zm15.78125.03125c-.08371.03537-.09894.1402-.03125.3125 1.73271.41607.39401-.46577.03125-.3125zm3.125,0c-.03618.02698-.00358.11267.15625.3125 1.49509.70825.00053-.42942-.15625-.3125zm-37.25.15625c-.90884.08956-2.07902.44866-2.78125,1.3125 .60868.06911 1.14588-.29613 1.71875-.40625 3.37252-.43925 2.57724-1.05551 1.0625-.90625zm16.5625.03125c-.14149.04205-.23581.16142-.1875.375 2.55081.54459.8006-.5572.1875-.375zm24.8125,0c-.15811-.01366-.22464.05459-.0625.25 1.80969.48291.53682-.20901.0625-.25zm-61.09375.09375c-.29248.00364-1.16168.24613-2.6875.96875 2.09111-.30523 3.17497-.97481 2.6875-.96875zm28.59375.0625c-.70924.05054-1.71923.28563-.9375.5625 2.05526-.47903 1.64674-.61304.9375-.5625zm3.125,0c-.22014.02779-.32354.16491-.15625.46875 2.41445.28009.81667-.55213.15625-.46875zm21.21875.03125c-.11372-.0005-.18912.0671-.15625.3125 1.15088.44648.49741-.31101.15625-.3125zm-58.6875.0625c.02439.02741.07307.10634.28125.21875 1.38277.46089-.0365-.17589-.28125-.21875zm-6.5.28125c-.14602-.02204-.23303.00904-.1875.15625l.3125.1875c1.34372.41914.35274-.27166-.125-.34375zm53.0625,0c-1.02851.12507-3.48879.77125-1.0625.625 1.78471-.59202 1.67961-.70004 1.0625-.625zm7.34375,0c-.1977.02393-.4011.14557-.5.46875 1.71992.35195 1.09311-.54055.5-.46875zm-55.59375.1875c-.16189.01374-.43336.10161-.8125.3125 .87167.24768 1.29816-.35372.8125-.3125zm14.84375.03125c-.05037-.00221.02546.05582.3125.21875 1.00018.31448-.1614-.21212-.3125-.21875zm4,.0625c-.1388.01536-.28354.14318-.4375.40625 1.05537.32609.85391-.45232.4375-.40625zm23.625,0c-.71729-.00316-1.29611.09853.40625.28125 1.16681-.1701.31104-.27809-.40625-.28125zm-4.875.0625c-.63992.04809-1.5876.33236-2.25,1.0625 3.51324-.53401 3.31653-1.14265 2.25-1.0625zm13,.09375c-.34813-.03228-.70759.09817-.59375.5625 1.72313-.02028 1.17397-.50869.59375-.5625zm11.5,0c-.11584-.00154-.17091.07764-.0625.28125 1.30722.38131.41003-.27662.0625-.28125zm4.84375,0c-.57789-.01482-2.6408.48051-1.5625.75 1.72084-.56528 1.90923-.74111 1.5625-.75zm-63.125.03125c-.16531-.00326-.30615.09612-.34375.375 1.51925.53328.83967-.36522.34375-.375zm37.15625.03125c-.29251.04074-.63853.26713-.96875.78125 2.2137.53428 1.84628-.90348.96875-.78125zm16.75.1875c-.11689-.00213-.16858.07625-.0625.28125 1.31306.38941.41316-.27487.0625-.28125zm-44.90625.09375c-.06542.03408-.10292.14989-.09375.34375 .64458.02177.29002-.44599.09375-.34375zm18.78125,0c-.17566.02079-.36466.14895-.46875.4375 1.49894.31985.99572-.49986.46875-.4375zm12.8125.15625c-.04753-.00118-.00498.06343.28125.21875 .9715.2909-.13866-.21521-.28125-.21875zm8.9375,0c-.40792.00139-.65587.05041 0,.25 1.81171-.08624.67986-.25231 0-.25zm3.40625,0c-.09086.00668-4e-005,.07894.46875.3125 1.71608.3563-.19617-.33253-.46875-.3125zm-7.875.125c-.38212.02961-1.00383.31218-1.625.96875 2.18741-.41096 2.26186-1.01811 1.625-.96875zm-4.96875.125c-.16224-.01852-.23711.04442-.09375.25 1.81552.54787.58046-.19443.09375-.25zm8.15625.03125c-.04686-.00089.02638.06542.3125.21875 .96489.2845-.17191-.21609-.3125-.21875zm-51.0625.03125c-.17107-.02539-.24107.03167-.125.25 1.85123.63676.63822-.17383.125-.25zm10.375.03125c-.08889.01026-.14201.09924-.09375.34375 .9402.34161.36042-.37454.09375-.34375zm9.09375.15625c-.29807-.00204-.52272.07655-.1875.28125 1.38099-.07086.68429-.27785.1875-.28125zm17.5625.03125c-.20645.04547-.29526.16921-.0625.4375 2.40088.04645.68185-.5739.0625-.4375zm-27.6875.09375c-.11347.01346-.29609.09883-.5625.25 .60979.14292.90291-.29037.5625-.25zm49.5,0c-.11676-.00182-.16981.07594-.0625.28125 1.31402.38701.41277-.2758.0625-.28125zm-40.5.1875c-.12619-.00711-.18094.06481-.09375.28125 1.36839.45782.47233-.25993.09375-.28125zm9.6875,0c-.25877-.03588-.72001.08126-1.1875.53125 1.49991.00368 1.61879-.47145 1.1875-.53125zm21.4375.09375c-.0798.01477-.03382.07822.3125.28125 1.38943.22362-.07311-.32557-.3125-.28125zm-18.03125.09375c-.18391.03022-.31595.17478-.3125.5625 1.77173.40777.86422-.65317.3125-.5625zm13.5625,0c-.15506.00827-.19703.09751-.03125.28125 1.78702.25137.49644-.30605.03125-.28125zm-32.15625.03125c-.21002.0513-.55142.20618-1,.5 1.20879.03643 1.63007-.65389 1-.5zm35.53125,0c-.04723-.00097.02562.06393.3125.21875 .96977.28801-.17081-.21583-.3125-.21875zm4.875.09375c-.22183.05963-.55965.23662-1,.59375 1.33693.07043 1.66549-.77263 1-.59375zm-11.9375.03125c-.74568.00022-2.60234.24805-.875.34375 1.37394-.24282 1.32241-.34388.875-.34375zm-5.75.09375c-.24213-.00773-.23362.07449.59375.3125 .90154-.05521-.1902-.29962-.59375-.3125zm-14.09375.0625c-.04995-.00194-.00733.02459.28125.1875 .99894.31189-.13141-.18167-.28125-.1875zm-4.875.0625c-.12677-.00728-.21115.0638-.125.28125 1.37207.46124.50531-.25942.125-.28125zm31.3125.125c.04566.0327.13762.10982.28125.1875 .93919.27944-.08347-.15437-.28125-.1875zm11.90625,0c-.06154.02446-.06332.11568.03125.3125 1.5299.73152.23544-.4185-.03125-.3125zm-38.8125.125c-.08227.01725-.12665.08729 0,.25 1.01779.12732.24682-.30174 0-.25zm9.3125.0625c-.13476-.01307-.12938.04246.1875.21875 1.86407.44275.21677-.17955-.1875-.21875zm-24.6875.03125c-.13586-.01313-.2137.05888-.0625.25 1.57637.4701.47006-.2106.0625-.25zm14.4375,0c-.08737.01112-.14863.10001-.09375.34375 .93754.33203.35586-.3771.09375-.34375zm35.15625.0625c-.0337.02389.04496.0926.3125.25 2.07082.51543-.16645-.35352-.3125-.25zm-20.9375.125c-.97696.0349-3.96913.7622-2.59375,1 .26335-.02362.51812-.07.78125-.09375 2.26025-.70742 2.39868-.92719 1.8125-.90625zm8.21875.03125c-.21332.03725-.44778.1663-.6875.4375 1.61635.13052 1.32745-.54926.6875-.4375zm-23.65625.15625c-.23766.04151-.46509.184-.625.53125 1.99369.22655 1.33798-.65578.625-.53125zm39.84375.03125c-.00671.03822.07214.12086.28125.28125 1.30301.30214-.25215-.44688-.28125-.28125zm-21.375.03125c-.222.01923-.45819.15918-.65625.53125 1.77471.48509 1.32226-.58895.65625-.53125zm9.1875,0c-.1202-.00349-.1945.03995-.09375.25 1.33523.4116.45434-.23953.09375-.25zm3.875,0c-.19585.02295-.18561.08455.28125.15625 2.72054-.09122.30631-.22509-.28125-.15625zm-46.8125.15625c-.12949-.0084-.20322.05961-.125.28125 1.38388.47961.51346-.25604.125-.28125zm5.5625,0c-.13493.02905-.25904.11327-.25.3125 1.31158.07973.65479-.39965.25-.3125zm40.1875.15625c.02774.02708.10216.11273.3125.21875 1.3349.41017-.08465-.18599-.3125-.21875zm-36.375.03125c-.13459-.01227-.18658.06034-.03125.25 1.57169.45922.43503-.21318.03125-.25zm-5.28125.0625c-.05148-.00228-.00825.05125.28125.21875 1.01533.32338-.1268-.21191-.28125-.21875zm-4.96875.0625c-.11568.01365-.28044.06422-.5625.21875 .60282.14707.90954-.25971.5625-.21875zm50.5625.0625c-.16141-.01663-.24434.04536-.09375.25 1.8206.52799.57798-.20011.09375-.25zm4.03125.0625c-.31142-.02704-.7677.10408-1.03125.625 1.68641-.06936 1.55029-.57993 1.03125-.625zm-40.875.0625c-.04142.02232.04188.11114.3125.28125 2.21246.61342-.13303-.37795-.3125-.28125zm5.09375.03125c-.12628-.00668-.21405.06354-.125.28125 1.37258.45597.50384-.26122.125-.28125zm18.4375,0c-.27025-.00263-.47311.0755-.15625.28125 1.24697-.06826.60667-.27686.15625-.28125zm-34.09375.0625c.04475.03499.13643.10341.28125.1875 .98373.31407-.06995-.1479-.28125-.1875zm29.0625,0c-.24385-.00788-.23816.07207.59375.3125 .90847-.05539-.18733-.29937-.59375-.3125zm9.4375.03125c-.12091-.0037-.19595.03827-.09375.25 1.34473.4166.45649-.23891.09375-.25zm-28.375.125c-.11289.004-.15036.10115.03125.375 1.4107.45449.30743-.38701-.03125-.375zm27.15625.0625c-.12688-.00781-.1695.0696 0,.25 1.52312.39973.38063-.22656 0-.25zm9.03125.03125c-.03899.02752.00114.13641.15625.34375 1.51335.74255.01273-.46299-.15625-.34375zm-13.09375.0625c-.10656.00717-.13412.10672.0625.375 1.37686.41404.25717-.39652-.0625-.375zm11.96875.1875c-.16301-.03987-.28696.01284-.28125.25 1.57519.80964.77028-.13039.28125-.25zm-47.03125.15625c-.14803-.00208-.27659.07559-.28125.3125 1.41269.44645.72534-.30625.28125-.3125zm5.125.09375c-.12907-.0079-.20667.05957-.125.28125 1.38609.47489.51221-.25754.125-.28125zm14.3125,0c-.11307-.00136-.26293.0787-.375.3125 .88371.43391.7142-.30842.375-.3125zm-9.65625.03125c-.05109-.00211.02183.05154.3125.21875 1.01372.32122-.15922-.21243-.3125-.21875zm5.0625,0c-.12717-.00694-.18125.062-.09375.28125 1.37835.4613.47527-.26042.09375-.28125zm14.28125.03125c-.12392-.00519-.18958.0657-.09375.28125 1.36211.43781.4655-.26568.09375-.28125zm21.5.0625c-.11632.021-.18407.12121-.09375.34375 .14245.02216.21906.02689.3125.03125 .11562-.03661.22885-.08853.34375-.125-.06308-.12263-.37348-.28412-.5625-.25zm-42.03125.28125c-.05127-.00213-.00972.05088.28125.21875 1.01591.3226-.12745-.21236-.28125-.21875zm9.65625.03125c-.08847.01255-.03815.09817.3125.3125 1.48051.26535-.04708-.35014-.3125-.3125zm18.8125,0c-.12215-.00411-.19413.06744-.09375.28125 1.35335.42432.46021-.26892.09375-.28125zm-33.46875.03125c-.1295-.00801-.20576.05871-.125.28125 1.3886.47748.51351-.25721.125-.28125zm45.875.09375c-.16613-.00785-.29032.10144-.15625.40625l.5-.15625c.03303-.12699-.16361-.24149-.34375-.25zm-18,.09375c-.07861.01046-.05753.11633.15625.375 1.13944.36522.07957-.40637-.15625-.375zm-28.78125.09375c-.12976-.00807-.2052.0582-.125.28125 1.39005.479.51428-.25703.125-.28125zm13.90625,0c-.08019.03836.03547.1335.5625.3125 1.71852-.04609-.32192-.42759-.5625-.3125zm23.3125.125c-.12722-.00767-.17014.06874 0,.25 1.52752.39995.38165-.22698 0-.25zm-28.21875.03125c.04533.03495.13556.10372.28125.1875 .9807.31046-.07157-.14884-.28125-.1875zm23.96875.03125c-.12268-.00428-.19334.06657-.09375.28125 1.35696.42754.46178-.2684.09375-.28125zm-29.09375.125c-.11473.00365-.14715.09774.03125.375 1.42256.46401.31295-.38595-.03125-.375zm19.8125.0625c-.41263.03447-2.44782.71257-.34375.25 .43536-.19571.48129-.26149.34375-.25zm17.40625.03125c-.12094-.00324-.19541.06888-.09375.28125 1.34401.41338.45657-.27153.09375-.28125zm3.5625.09375c-.13023.00796-.26455.11663-.3125.40625 .02562.00979.03845-.00854.0625,0 .20736-.06414.38768-.12353.59375-.1875-.0822-.12004-.20376-.22731-.34375-.21875zm-31.90625.03125c-.13395-.01137-.1903.02909-.03125.21875 1.57219.45059.43309-.18463.03125-.21875zm19.1875.0625c-.04881-.00126.02164.05721.3125.21875 .99215.30284-.16606-.21498-.3125-.21875zm8.15625,0c-.11952.01406-.11806.14033.125.40625 1.58492.34367.23356-.44844-.125-.40625zm-8.8125.21875c-.1189-.00215-.15605.04234.0625.1875 1.53487.28191.29421-.18106-.0625-.1875zm3.90625.09375c-.04854-.00113.02154.05788.3125.21875 .98973.30038-.16687-.21537-.3125-.21875zm7.9375,0c-.06489.02444-.05691.11039.03125.3125 .04518.02225.05329.04349.09375.0625l.40625-.125c-.18187-.14741-.42915-.28845-.53125-.25zm-36.4375.09375c-.13557-.01215-.18733.05808-.03125.25 1.58242.46213.43796-.21354.03125-.25zm4.75,0c-.08991.01238-.03854.09615.3125.3125 1.49503.27056-.04276-.34965-.3125-.3125zm9.65625,0c.04576.03455.13536.10494.28125.1875 .97137.30247-.07473-.15052-.28125-.1875zm-19.40625.03125c-.41797-.00999-.55283.04475.40625.28125 1.74243-.04313.29036-.26461-.40625-.28125zm28.28125.03125c-.04909-.00132-.01013.05616.28125.21875 .99569.30531-.13399-.2148-.28125-.21875zm4.4375.09375c-.08387.01354-.13158.13256-.0625.375 .92945.30644.3141-.41561.0625-.375zm-23.84375.09375c-.05107-.00196-.01111.08169.28125.25 1.01657.32181-.12803-.24411-.28125-.25zm10.15625,0c-.12601-.00586-.18629.06222-.09375.28125 1.37622.4505.47177-.26367.09375-.28125zm-20.28125.125c-.21171.03558-.47009.14541-.71875.375l.4375.25c1.27181-.02431.98819-.74379.28125-.625zm19.25.03125c-.08727.01227-.15237.09758-.09375.34375 .94333.32534.35557-.38055.09375-.34375zm4.625.0625c-.12526-.0054-.18838.06293-.09375.28125 1.37279.44478.46952-.26506.09375-.28125zm13.3125,0c-.08279.03688-.09909.14768-.03125.34375 1.71873.52767.39-.50355.03125-.34375zm-22.96875.09375c-.13387-.01109-.19142.06006-.03125.25 1.57348.44833.43286-.21674.03125-.25zm-10.0625.09375c-.13628-.01239-.21759.0569-.0625.25 1.58746.46654.47135-.21283.0625-.25zm13.53125.0625c-.09682.0237.01925.10953.5.34375 1.79483.19412-.20954-.41484-.5-.34375zm-9.09375.03125c-.09072.0123-.03865.09504.3125.3125 1.50298.27335-.04034-.3494-.3125-.3125zm32.6875,0c-.72208.10357-1.81182.38779-2.5.75l2.5-.75zm-18.15625.09375c.04593.03462.13505.10488.28125.1875 .97142.30172-.07494-.15081-.28125-.1875zm-10.15625.15625c-.08882.01189-.14785.12682-.09375.375 .95003.3326.3602-.41067.09375-.375zm4.53125.0625c-.14786-.00097-.243.11158-.1875.40625 1.51936.53975.63108-.40333.1875-.40625zm18,.03125c-.04866-.00107.02051.05693.3125.21875 .99274.30158-.16651-.21553-.3125-.21875zm-9.125.0625c-.1203-.00203-.17972.13545.0625.53125 .51491-.14678.138-.52787-.0625-.53125zm-19.25.09375c.04555.03547.13467.10249.28125.1875 .9882.31455-.0698-.14842-.28125-.1875zm27.59375.03125c-.07783.00994-.0578.11785.21875.34375 1.24495.31124.01474-.37356-.21875-.34375zm-18.875.21875c-.28762.0286-.34642.13858.5.34375 1.12504-.2267-.02063-.39142-.5-.34375zm18.28125.125c.04627.03422.13499.10613.28125.1875 .96257.29349-.07785-.15254-.28125-.1875zm-13.875.03125c-.08107.0087-.05389.11157.21875.34375 1.26901.3344.02446-.36985-.21875-.34375zm13,0c-.04897-.00114-.01137.05569.28125.21875 .99685.30449-.13433-.21532-.28125-.21875zm-27.5.0625c-.23192.03215-.56678.11159-.9375.3125 1.55914.05297 1.63326-.40896.9375-.3125zm9.40625.0625c-.11256.00543-.15572.0974.03125.375 1.41713.44755.30643-.39129-.03125-.375zm13.90625.0625c-.12455-.00467-.19142.06292-.09375.28125 1.37146.43783.46739-.26724.09375-.28125zm-5.25.15625c-.04998-.00147.01908.05252.3125.21875 1.00793.31336-.16257-.21433-.3125-.21875zm-9.5625.1875c-.16796-.01622-.23379.10388.09375.5 .72314-.07483.18618-.47297-.09375-.5zm9.21875.09375c-.12605-.00538-.21943.09219-.125.3125 1.38011.44821.50316-.29636.125-.3125zm-20.5.125c-.20816,5e-005-.37817.03145-.5.09375l.84375.46875c1.32094-.21952.41002-.56268-.34375-.5625zm4,.1875c-.11416-.0243-.15295.07954.03125.375 1.42747.76511.31122-.3021-.03125-.375zm5.40625.03125c-.05123-.00183.01809.04864.3125.21875 1.02171.32377-.15882-.21326-.3125-.21875zm18.375.0625c-.01101.03957.04284.14066.25.3125 1.36094.34586-.20229-.48398-.25-.3125zm-4.375.0625c-.08114.01934-.10043.11715.03125.28125 1.01602.10973.21218-.33927-.03125-.28125zm-5.125.03125c-.08116.00888-.05476.11067.21875.34375 1.27143.33426.02472-.3704-.21875-.34375zm-9.40625.09375c-.17139-.02326-.25417.02849-.125.25 1.87788.62199.63918-.18023.125-.25zm5.125.09375c-.85781.03408-1.56877.13589.4375.21875 1.42498-.21921.42031-.25283-.4375-.21875zm-1.78125.25c.04607.03554.13383.10255.28125.1875 .98662.31171-.07093-.1493-.28125-.1875zm5.375.03125c-.09474.00136-.15511.08655-.0625.3125 1.07621.39365.34672-.31659.0625-.3125zm-1.0625.1875c-.08816.01279-.15206.09474-.09375.34375 .95132.32541.35824-.38213.09375-.34375zm-9.5.125c-.02017.00301-.02011.02731-.03125.03125 .05201.02117.18107.05927.40625.09375 2.10135-.06833.02834-.18514-.375-.125zm-1.21875.125c-.01507.03989.0475.1333.25.3125 1.39962.38277-.18468-.48537-.25-.3125zm14.65625.125c-.0874.01318-.12356.09531-.0625.34375 .94891.32065.32469-.3833.0625-.34375zm-10.15625.125c-.12897-.00653-.18231.08776-.09375.3125 1.39754.46718.48067-.29292.09375-.3125zm5.125,0c-.15973.03128-.27.11657-.21875.34375 1.62566.10863.69794-.43759.21875-.34375zm-10.3125.21875c-.0972.00055-.14763.08293-.0625.3125 1.08637.40793.35411-.31415.0625-.3125zm18.625.03125c-.04285.04515-.0215.16661.125.375 1.52615.46508.06068-.57064-.125-.375zm-4.78125.125c-.36151-.06434-.70743.16072 0,.8125 .73859-.39441.36151-.74816 0-.8125zm-14.75.0625c-.07153-.02515-.13856.05457-.21875.3125 .54231.70572.43333-.23705.21875-.3125zm8.15625.5c-.17156-.02277-.28779.05867-.15625.28125 1.88374.61925.67093-.21294.15625-.28125zm8.78125.09375c-.04424.02835-.02011.12424.125.34375 .22515.11674.35896.21091.46875.25h.03125c.05446-.01497.10153-.04744.15625-.0625-.08774-.17324-.66328-.60684-.78125-.53125zm-13.75.03125c.04618.03619.13299.10096.28125.1875 .99656.31796-.06834-.14844-.28125-.1875zm4.0625.125c-.11381.00589-.12505.12408.0625.40625 1.43015.4514.27892-.42391-.0625-.40625zm-4.875.03125c-.13671-.01159-.19001.0548-.03125.25 1.59816.46261.44137-.21523.03125-.25zm-.84375.25c-.13045-.00693-.1797.05376-.09375.28125 1.407.47602.48509-.26046.09375-.28125zm9.78125.15625c.02675.02887.12849.10339.34375.21875 1.3991.45826-.10026-.17937-.34375-.21875zm4.15625.03125c.0466.03572.13286.10237.28125.1875 .98647.30939-.07169-.15018-.28125-.1875zm-5.375.21875c-.13506-.01052-.16271.05673 0,.25 1.58946.4489.40518-.21843 0-.25zm4.25.03125c-.08323.01942-.0993.11356.03125.28125 1.03396.11538.21843-.33952-.03125-.28125zm-9.0625.03125c-.12761.02669-.17056.12063.03125.28125 1.58834.03292.35159-.36131-.03125-.28125zm4.125.3125c-.15943-.00023-.36001.08943-.53125.28125 1.22232.34749 1.00955-.28056.53125-.28125zm-5.78125.15625c-.36953-.00329-.72174.03564-.9375.09375 .26819.13375.47187.25547.71875.375 1.6767-.28385 1.04317-.46141.21875-.46875zm8.03125.5c-.09055.00538-.08812.10918 0,.28125l.40625-.09375c-.14849-.08578-.31015-.19321-.40625-.1875zm-4.28125.0625c-.62515-.01299-1.86724.23029-.28125.375 .80443-.26492.65634-.36721.28125-.375zm2.34375.59375c-.05122.01003-.06221.04193-.0625.09375l.3125-.0625c-.0889-.02338-.19502-.04202-.25-.03125zm-.84375.25c-.02583-.00077-.04677-.00533 0,.03125 .02349-.00503.0387.00514.0625,0-.01544-.00375-.05346-.03098-.0625-.03125z" fill="inherit" transform="translate(341.59 228.39)"/></g></g></g></svg>