<?xml version="1.0" encoding="UTF-8" standalone="no"?><svg xmlns="http://www.w3.org/2000/svg" xmlns:xlink="http://www.w3.org/1999/xlink" fill="#000000" height="227" preserveAspectRatio="xMidYMid meet" version="1" viewBox="135.1 99.1 155.0 227.0" width="155" zoomAndPan="magnify"><g><g id="change1_1"><path d="M 147.203125 111.199219 C 147.203125 105.277344 152.003906 100.480469 157.921875 100.480469 L 277.996094 100.480469 C 283.917969 100.480469 288.71875 105.277344 288.71875 111.199219 L 288.71875 302.03125 C 288.71875 307.949219 283.917969 312.753906 277.996094 312.753906 L 182.578125 312.753906 L 147.203125 274.867188 L 147.203125 111.199219" fill="#755f4f"/></g><g id="change2_1"><path d="M 147.203125 111.199219 L 148.597656 111.199219 C 148.597656 108.617188 149.636719 106.296875 151.328125 104.605469 C 153.019531 102.914062 155.34375 101.871094 157.921875 101.871094 L 277.996094 101.871094 C 280.578125 101.871094 282.898438 102.914062 284.59375 104.605469 C 286.28125 106.296875 287.324219 108.617188 287.324219 111.199219 L 287.324219 302.03125 C 287.324219 304.609375 286.28125 306.933594 284.59375 308.625 C 282.898438 310.316406 280.578125 311.359375 277.996094 311.359375 L 183.183594 311.359375 L 148.597656 274.320312 L 148.597656 111.199219 L 145.808594 111.199219 L 145.808594 274.867188 C 145.808594 275.21875 145.945312 275.5625 146.183594 275.820312 L 181.558594 313.703125 C 181.824219 313.988281 182.191406 314.144531 182.578125 314.144531 L 277.996094 314.144531 C 284.6875 314.144531 290.109375 308.71875 290.113281 302.03125 L 290.113281 111.199219 C 290.109375 104.507812 284.6875 99.085938 277.996094 99.085938 L 157.921875 99.085938 C 151.230469 99.085938 145.808594 104.507812 145.808594 111.199219 L 147.203125 111.199219" fill="#000000"/></g><g id="change3_1"><path d="M 142.570312 116.917969 C 142.570312 110.996094 147.371094 106.199219 153.292969 106.199219 L 273.367188 106.199219 C 279.285156 106.199219 284.089844 110.996094 284.089844 116.917969 L 284.089844 307.75 C 284.089844 313.671875 279.285156 318.46875 273.367188 318.46875 L 177.949219 318.46875 L 142.570312 280.59375 L 142.570312 116.917969" fill="#746457"/></g><g id="change2_2"><path d="M 142.570312 116.917969 L 143.964844 116.917969 C 143.96875 114.339844 145.007812 112.015625 146.699219 110.324219 C 148.390625 108.632812 150.714844 107.59375 153.292969 107.59375 L 273.367188 107.59375 C 275.945312 107.59375 278.269531 108.632812 279.960938 110.324219 C 281.652344 112.015625 282.695312 114.339844 282.695312 116.917969 L 282.695312 307.75 C 282.695312 310.328125 281.652344 312.652344 279.960938 314.34375 C 278.269531 316.035156 275.945312 317.074219 273.367188 317.074219 L 178.554688 317.074219 L 143.964844 280.042969 L 143.964844 116.917969 L 141.179688 116.917969 L 141.179688 280.59375 C 141.179688 280.941406 141.3125 281.285156 141.554688 281.542969 L 176.929688 319.421875 C 177.195312 319.703125 177.5625 319.863281 177.949219 319.863281 L 273.367188 319.863281 C 280.058594 319.863281 285.480469 314.441406 285.484375 307.75 L 285.484375 116.917969 C 285.480469 110.226562 280.058594 104.804688 273.367188 104.804688 L 153.292969 104.804688 C 146.601562 104.804688 141.179688 110.226562 141.179688 116.917969 L 142.570312 116.917969" fill="#000000"/></g><g id="change4_1"><path d="M 277.996094 314 C 277.996094 319.925781 273.195312 324.722656 267.277344 324.722656 L 147.203125 324.722656 C 141.28125 324.722656 136.480469 319.925781 136.480469 314 L 136.480469 123.171875 C 136.480469 117.246094 141.28125 112.449219 147.203125 112.449219 L 242.621094 112.449219 L 277.996094 150.332031 L 277.996094 314" fill="#766050"/></g><g id="change2_3"><path d="M 277.996094 314 L 276.601562 314 C 276.601562 316.582031 275.5625 318.90625 273.871094 320.597656 C 272.179688 322.285156 269.855469 323.328125 267.277344 323.328125 L 147.203125 323.328125 C 144.621094 323.328125 142.300781 322.285156 140.609375 320.597656 C 138.917969 318.90625 137.878906 316.582031 137.875 314 L 137.875 123.171875 C 137.878906 120.589844 138.917969 118.265625 140.609375 116.574219 C 142.300781 114.886719 144.621094 113.84375 147.203125 113.84375 L 242.015625 113.84375 L 276.601562 150.882812 L 276.601562 314 L 279.390625 314 L 279.390625 150.332031 C 279.390625 149.980469 279.253906 149.636719 279.015625 149.378906 L 243.640625 111.5 C 243.375 111.214844 243.007812 111.054688 242.621094 111.054688 L 147.203125 111.054688 C 140.511719 111.058594 135.089844 116.476562 135.089844 123.171875 L 135.089844 314 C 135.089844 320.695312 140.511719 326.113281 147.203125 326.117188 L 267.277344 326.117188 C 273.96875 326.113281 279.390625 320.695312 279.390625 314 L 277.996094 314" fill="#000000"/></g><g id="change5_1"><path d="M 277.816406 150.332031 L 252.265625 150.332031 C 246.9375 150.332031 242.617188 145.828125 242.617188 140.273438 L 242.617188 112.449219 L 277.816406 150.332031" fill="#746457"/></g><g id="change2_4"><path d="M 277.816406 150.332031 L 277.816406 148.9375 L 252.265625 148.9375 C 250 148.9375 247.953125 147.984375 246.449219 146.421875 C 244.949219 144.855469 244.011719 142.6875 244.011719 140.273438 L 244.011719 115.996094 L 276.796875 151.28125 L 277.816406 150.332031 L 277.816406 148.9375 L 277.816406 150.332031 L 278.839844 149.382812 L 243.640625 111.5 C 243.25 111.082031 242.640625 110.941406 242.109375 111.152344 C 241.574219 111.363281 241.222656 111.878906 241.222656 112.449219 L 241.222656 140.273438 C 241.222656 143.414062 242.449219 146.277344 244.4375 148.351562 C 246.425781 150.425781 249.203125 151.726562 252.265625 151.726562 L 277.816406 151.726562 C 278.371094 151.726562 278.871094 151.398438 279.09375 150.886719 C 279.316406 150.378906 279.214844 149.789062 278.839844 149.382812 L 277.816406 150.332031" fill="#000000"/></g><g id="change2_5"><path d="M 150.453125 155.523438 L 150.453125 130.480469 L 162.761719 156.125 C 163.042969 156.714844 163.691406 157.027344 164.328125 156.882812 C 164.964844 156.738281 165.414062 156.175781 165.414062 155.523438 L 165.414062 124.355469 C 165.414062 123.585938 164.789062 122.960938 164.019531 122.960938 C 163.25 122.960938 162.625 123.585938 162.625 124.355469 L 162.625 149.398438 L 150.3125 123.75 C 150.03125 123.160156 149.382812 122.847656 148.746094 122.992188 C 148.113281 123.140625 147.664062 123.699219 147.664062 124.355469 L 147.664062 155.523438 C 147.664062 156.292969 148.289062 156.917969 149.058594 156.917969 C 149.828125 156.917969 150.453125 156.292969 150.453125 155.523438" fill="#000000"/></g><g id="change2_6"><path d="M 186.902344 124.597656 L 192.515625 156.1875 C 192.632812 156.832031 193.183594 157.3125 193.84375 157.335938 C 194.496094 157.359375 195.082031 156.917969 195.242188 156.28125 L 202.003906 129.21875 L 211.480469 156.402344 C 211.695312 157.011719 212.300781 157.398438 212.945312 157.328125 C 213.589844 157.261719 214.101562 156.757812 214.179688 156.113281 L 218.128906 124.527344 C 218.226562 123.761719 217.683594 123.066406 216.917969 122.96875 C 216.15625 122.875 215.457031 123.417969 215.363281 124.179688 L 212.152344 149.859375 L 203.097656 123.894531 C 202.898438 123.3125 202.335938 122.933594 201.71875 122.960938 C 201.105469 122.988281 200.578125 123.417969 200.429688 124.015625 L 194.121094 149.269531 L 189.648438 124.109375 C 189.511719 123.351562 188.789062 122.847656 188.03125 122.980469 C 187.273438 123.117188 186.769531 123.839844 186.902344 124.597656" fill="#000000"/></g><g id="change2_7"><path d="M 183.554688 154.128906 L 172.6875 154.128906 L 172.6875 125.746094 L 183.554688 125.746094 C 184.324219 125.746094 184.949219 125.121094 184.949219 124.355469 C 184.949219 123.585938 184.324219 122.960938 183.554688 122.960938 L 171.292969 122.960938 C 170.925781 122.960938 170.566406 123.109375 170.304688 123.367188 C 170.046875 123.628906 169.898438 123.984375 169.898438 124.355469 L 169.898438 155.523438 C 169.898438 155.890625 170.046875 156.25 170.304688 156.507812 C 170.566406 156.769531 170.925781 156.917969 171.292969 156.917969 L 183.554688 156.917969 C 184.324219 156.917969 184.949219 156.292969 184.949219 155.523438 C 184.949219 154.753906 184.324219 154.128906 183.554688 154.128906" fill="#000000"/></g><g id="change2_8"><path d="M 171.292969 141.332031 L 180.851562 141.332031 C 181.621094 141.332031 182.246094 140.707031 182.246094 139.9375 C 182.246094 139.167969 181.621094 138.542969 180.851562 138.542969 L 171.292969 138.542969 C 170.523438 138.542969 169.898438 139.167969 169.898438 139.9375 C 169.898438 140.707031 170.523438 141.332031 171.292969 141.332031" fill="#000000"/></g><g id="change2_9"><path d="M 219.550781 148.609375 C 219.574219 148.695312 220.042969 150.476562 221.316406 152.464844 C 221.957031 153.453125 222.804688 154.503906 223.925781 155.394531 C 225.046875 156.285156 226.449219 157.011719 228.128906 157.3125 L 228.132812 157.3125 C 228.652344 157.40625 229.175781 157.453125 229.695312 157.453125 C 231.925781 157.453125 234.085938 156.613281 235.710938 155.105469 C 237.335938 153.597656 238.40625 151.378906 238.398438 148.789062 C 238.398438 148.273438 238.359375 147.746094 238.273438 147.203125 C 237.945312 145.082031 236.953125 143.351562 235.714844 141.9375 C 233.847656 139.808594 231.449219 138.277344 229.421875 136.675781 C 228.40625 135.878906 227.480469 135.070312 226.746094 134.210938 C 226.007812 133.351562 225.460938 132.449219 225.136719 131.421875 C 224.984375 130.9375 224.914062 130.464844 224.914062 130.015625 C 224.917969 128.851562 225.371094 127.816406 226.183594 127.042969 C 226.996094 126.273438 228.175781 125.75 229.730469 125.746094 C 230.714844 125.75 231.429688 125.988281 232.023438 126.335938 C 232.90625 126.851562 233.523438 127.679688 233.902344 128.410156 C 234.09375 128.773438 234.222656 129.101562 234.300781 129.332031 C 234.339844 129.449219 234.367188 129.539062 234.382812 129.59375 L 234.398438 129.652344 C 234.570312 130.402344 235.316406 130.871094 236.070312 130.699219 C 236.820312 130.527344 237.289062 129.78125 237.117188 129.03125 C 237.085938 128.925781 236.773438 127.527344 235.707031 126.035156 C 235.171875 125.289062 234.4375 124.519531 233.4375 123.933594 C 232.445312 123.34375 231.1875 122.957031 229.730469 122.960938 C 227.535156 122.957031 225.613281 123.730469 224.261719 125.023438 C 222.902344 126.308594 222.125 128.105469 222.128906 130.015625 C 222.128906 130.753906 222.242188 131.507812 222.476562 132.25 C 223.085938 134.203125 224.261719 135.753906 225.59375 137.050781 C 227.601562 139 229.996094 140.484375 231.898438 142.109375 C 232.851562 142.917969 233.679688 143.746094 234.296875 144.644531 C 234.914062 145.542969 235.339844 146.496094 235.519531 147.636719 C 235.582031 148.039062 235.613281 148.421875 235.613281 148.789062 C 235.605469 150.625 234.898438 152.039062 233.808594 153.0625 C 232.71875 154.082031 231.222656 154.667969 229.695312 154.664062 C 229.339844 154.664062 228.980469 154.636719 228.628906 154.570312 C 227.441406 154.355469 226.480469 153.859375 225.660156 153.210938 C 224.433594 152.238281 223.550781 150.898438 223 149.789062 C 222.726562 149.238281 222.53125 148.746094 222.410156 148.40625 C 222.347656 148.234375 222.304688 148.097656 222.277344 148.011719 L 222.25 147.914062 L 222.242188 147.894531 L 222.078125 147.941406 L 222.242188 147.898438 L 222.242188 147.894531 L 222.078125 147.941406 L 222.242188 147.898438 C 222.046875 147.152344 221.285156 146.710938 220.539062 146.90625 C 219.796875 147.101562 219.351562 147.863281 219.550781 148.609375" fill="#000000"/></g><g id="change2_10"><path d="M 147.203125 178.882812 L 266.917969 178.882812 L 266.917969 176.097656 L 147.203125 176.097656 Z M 147.203125 178.882812" fill="#000000"/></g><g id="change2_11"><path d="M 147.203125 164.179688 L 266.917969 164.179688 L 266.917969 161.394531 L 147.203125 161.394531 Z M 147.203125 164.179688" fill="#000000"/></g><g id="change2_12"><path d="M 207.0625 192.820312 L 266.917969 192.820312 L 266.917969 190.03125 L 207.0625 190.03125 Z M 207.0625 192.820312" fill="#000000"/></g><g id="change2_13"><path d="M 207.0625 203.898438 L 266.917969 203.898438 L 266.917969 201.113281 L 207.0625 201.113281 Z M 207.0625 203.898438" fill="#000000"/></g><g id="change2_14"><path d="M 207.0625 214.976562 L 266.917969 214.976562 L 266.917969 212.191406 L 207.0625 212.191406 Z M 207.0625 214.976562" fill="#000000"/></g><g id="change2_15"><path d="M 242.617188 226.058594 L 266.917969 226.058594 L 266.917969 223.269531 L 242.617188 223.269531 Z M 242.617188 226.058594" fill="#000000"/></g><g id="change2_16"><path d="M 207.0625 226.058594 L 235.46875 226.058594 L 235.46875 223.269531 L 207.0625 223.269531 Z M 207.0625 226.058594" fill="#000000"/></g><g id="change2_17"><path d="M 150.925781 238.917969 L 266.171875 238.917969 L 266.171875 236.128906 L 150.925781 236.128906 Z M 150.925781 238.917969" fill="#000000"/></g><g id="change2_18"><path d="M 150.925781 249.996094 L 266.171875 249.996094 L 266.171875 247.207031 L 150.925781 247.207031 Z M 150.925781 249.996094" fill="#000000"/></g><g id="change2_19"><path d="M 150.925781 261.074219 L 266.171875 261.074219 L 266.171875 258.289062 L 150.925781 258.289062 Z M 150.925781 261.074219" fill="#000000"/></g><g id="change2_20"><path d="M 219.386719 272.15625 L 266.171875 272.15625 L 266.171875 269.367188 L 219.386719 269.367188 Z M 219.386719 272.15625" fill="#000000"/></g><g id="change2_21"><path d="M 219.386719 286.09375 L 266.171875 286.09375 L 266.171875 283.304688 L 219.386719 283.304688 Z M 219.386719 286.09375" fill="#000000"/></g><g id="change2_22"><path d="M 219.386719 296.101562 L 266.171875 296.101562 L 266.171875 293.3125 L 219.386719 293.3125 Z M 219.386719 296.101562" fill="#000000"/></g><g id="change2_23"><path d="M 219.386719 305.75 L 266.171875 305.75 L 266.171875 302.960938 L 219.386719 302.960938 Z M 219.386719 305.75" fill="#000000"/></g><g id="change2_24"><path d="M 150.925781 272.15625 L 207.769531 272.15625 L 207.769531 269.367188 L 150.925781 269.367188 Z M 150.925781 272.15625" fill="#000000"/></g><g id="change4_2"><path d="M 198.304688 226.449219 L 149.347656 226.449219 L 149.347656 186.777344 L 198.304688 186.777344 L 198.304688 226.449219" fill="#766050"/></g><g id="change2_25"><path d="M 198.304688 226.449219 L 198.304688 225.054688 L 150.742188 225.054688 L 150.742188 188.171875 L 196.910156 188.171875 L 196.910156 226.449219 L 198.304688 226.449219 L 198.304688 225.054688 L 198.304688 226.449219 L 199.699219 226.449219 L 199.699219 186.777344 C 199.699219 186.410156 199.550781 186.054688 199.289062 185.792969 C 199.03125 185.535156 198.671875 185.386719 198.304688 185.386719 L 149.347656 185.386719 C 148.980469 185.386719 148.621094 185.535156 148.363281 185.792969 C 148.101562 186.054688 147.953125 186.410156 147.953125 186.777344 L 147.953125 226.449219 C 147.953125 226.816406 148.101562 227.175781 148.363281 227.433594 C 148.621094 227.695312 148.980469 227.84375 149.347656 227.84375 L 198.304688 227.84375 C 198.671875 227.84375 199.03125 227.695312 199.289062 227.433594 C 199.550781 227.175781 199.699219 226.816406 199.699219 226.449219 L 198.304688 226.449219" fill="#000000"/></g><g id="change4_3"><path d="M 187.539062 306.496094 L 149.347656 306.496094 L 149.347656 278.625 L 187.539062 278.625 L 187.539062 306.496094" fill="#766050"/></g><g id="change2_26"><path d="M 187.539062 306.496094 L 187.539062 305.101562 L 150.742188 305.101562 L 150.742188 280.019531 L 186.144531 280.019531 L 186.144531 306.496094 L 187.539062 306.496094 L 187.539062 305.101562 L 187.539062 306.496094 L 188.933594 306.496094 L 188.933594 278.625 C 188.933594 278.257812 188.785156 277.898438 188.527344 277.636719 C 188.265625 277.378906 187.90625 277.230469 187.539062 277.230469 L 149.347656 277.230469 C 148.980469 277.230469 148.621094 277.378906 148.363281 277.636719 C 148.101562 277.898438 147.953125 278.257812 147.953125 278.625 L 147.953125 306.496094 C 147.953125 306.863281 148.101562 307.222656 148.363281 307.480469 C 148.621094 307.742188 148.980469 307.890625 149.347656 307.890625 L 187.539062 307.890625 C 187.90625 307.890625 188.265625 307.742188 188.527344 307.480469 C 188.785156 307.222656 188.933594 306.863281 188.933594 306.496094 L 187.539062 306.496094" fill="#000000"/></g><g id="change4_4"><path d="M 205.453125 306.496094 L 192.351562 306.496094 L 192.351562 278.625 L 205.453125 278.625 L 205.453125 306.496094" fill="#766050"/></g><g id="change2_27"><path d="M 205.453125 306.496094 L 205.453125 305.101562 L 193.746094 305.101562 L 193.746094 280.019531 L 204.058594 280.019531 L 204.058594 306.496094 L 205.453125 306.496094 L 205.453125 305.101562 L 205.453125 306.496094 L 206.847656 306.496094 L 206.847656 278.625 C 206.847656 278.257812 206.695312 277.898438 206.4375 277.636719 C 206.179688 277.378906 205.820312 277.230469 205.453125 277.230469 L 192.351562 277.230469 C 191.984375 277.230469 191.625 277.378906 191.367188 277.636719 C 191.105469 277.898438 190.960938 278.257812 190.960938 278.625 L 190.960938 306.496094 C 190.960938 306.863281 191.105469 307.222656 191.367188 307.480469 C 191.625 307.742188 191.984375 307.890625 192.351562 307.890625 L 205.453125 307.890625 C 205.820312 307.890625 206.179688 307.742188 206.4375 307.480469 C 206.695312 307.222656 206.847656 306.863281 206.847656 306.496094 L 205.453125 306.496094" fill="#000000"/></g></g></svg>