<?xml version="1.0" encoding="UTF-8"?><svg xmlns="http://www.w3.org/2000/svg" xmlns:xlink="http://www.w3.org/1999/xlink" height="501.7" preserveAspectRatio="xMidYMid meet" version="1.0" viewBox="-10.7 -4.4 491.4 501.7" width="491.4" zoomAndPan="magnify"><g id="change1_1"><path d="M117.5,343.9c-42.614,16.872-55.152,84.208,4.665,126.543,34.436,26.9,92.035,21.248,112.286-22.8,22.208,6.43,48.626,7.53,77.507-2.582,11.476,27.475,38.8,43.9,65.929,43.124,25.493.078,47.537-11.489,64.475-30.523,38.339-42.523,27.282-77.54,16.3-97.371-.122-21.788-14.3-40.974-36.8-50.027a33.817,33.817,0,0,1-20.291-23.275c-8.256-33.986-26.1-48.757-39.82-55.174,30.515-26.3,41.919-67.406,26.784-103.479,33.627-22.467,36.773-74.32,5.78-100.484C359.541-4.075,300.052,14.172,289.11,59.868a150.3,150.3,0,0,0-43.2,1.064C235.649,14.983,180.447-4.354,146.546,28.6c-30.007,26.968-27.522,81.643,5.437,104.5-16.381,44.824,9.732,93.14,51.38,114.527-1.727,9.033-1.939,24.725,11.251,39.993a18.462,18.462,0,0,0,24.257,3.265,107.869,107.869,0,0,0-15.166,49.1,5.5,5.5,0,0,0,5.946,5.8l20.914-1.735a22.967,22.967,0,0,0,20.521-17.825c2.911-12.643,8.732-30.612,20.08-46.813l4.264,3.11c16.6,20.449,23.882,43.529,26.737,55.689L298,330.839a112.8,112.8,0,0,0-2.92-20.4,5.5,5.5,0,1,0-10.7,2.56,102.458,102.458,0,0,1,2.758,22.051,5.5,5.5,0,0,0,3.894,5.166L327.7,351.4a5.54,5.54,0,0,0,7.063-5.928,150.126,150.126,0,0,0-17.155-49.584,18.531,18.531,0,0,0,19.538-12.057,81.964,81.964,0,0,0,4.366-35.713q2.217-2.124,4.14-4.375c2.113-1.294,4.148-2.672,6.134-4.068,13.712,4.43,31.048,16.762,39.1,49.911a44.837,44.837,0,0,0,26.877,30.885c9.949,4,20.414,11.737,25.945,22.986-19.038-15.12-46.372-12.725-63.98-1.333,1.12-23.553-2.425-52.4-9.573-73.634a5.5,5.5,0,0,0-10.448,3.444c7.563,22.451,10.892,54.271,8.414,78.445A93.444,93.444,0,0,0,354.3,364.488c-2.779,3.451.017,8.941,4.388,8.807a5.5,5.5,0,0,0,4.391-2.179c-.349-1.132,32.393-37.573,62.888-24.93-29.353,9.817-48.8,50.561-38.6,80.452,5.515,18.059,19.271,30.72,37.062,33.183-25.434,22.186-84.063,33.143-106.015-28.34-2.411-6.714-12.392-3.562-10.473,3.336-26.862,9.184-49.9,7.937-69.477,2.553a100.255,100.255,0,0,0,2.862-11.232c1.2-7.149-9.225-9.195-10.8-2.1-13.223,61.339-70.184,58.378-97.347,40.634,52.658-16.783,34.265-97.7-15.7-108.776,27.385-15.47,63.206,15.3,62.7,16.135a5.5,5.5,0,0,0,7.836-7.722,92.37,92.37,0,0,0-18.2-13.693,130.782,130.782,0,0,1,.343-28.647C173.331,295.5,185.4,269.26,185.524,269c2.886-6.642-6.749-11.141-9.976-4.634-.2.438-2.19,4.754-4.742,11.506C111.29,271.361,66.95,229.551,46.84,194.55a39.77,39.77,0,0,1,8.054-49.215c15.981-14.937,43.4-12.924,56.987,4.227,4.465,5.387,9.237,10.651,14.184,15.644a5.5,5.5,0,0,0,7.815-7.742c-4.72-4.763-9.272-9.784-13.531-14.922-17.359-21.9-52.372-24.488-72.787-5.406C-10.682,191.876,97.393,282.9,167.047,286.588c-5.7,16.776-9.965,39.64-8.683,58.489C146.625,340.509,132.388,338.369,117.5,343.9ZM348.368,22.783c52.6-2.889,77.3,63.66,35.284,95.513a99.885,99.885,0,0,0-10.076-14.643c27.155-21.1,10.3-65.336-24.159-63.183a35.761,35.761,0,0,0-32.128,25.692,141.939,141.939,0,0,0-17.258-4.557A53.451,53.451,0,0,1,348.368,22.783ZM366.1,95.506a123.745,123.745,0,0,0-38.474-25.437A24.688,24.688,0,0,1,350.07,51.45C374.271,49.975,385.7,81.3,366.1,95.506ZM136.5,74.61c4.688-59.989,81.97-72.084,98.647-11.4C210.206,69.5,188.572,82.13,172.994,98.831c-18.072-14.356-8-47.474,15.411-46.071A21.627,21.627,0,0,1,202.65,59.7a5.5,5.5,0,0,0,8.033-7.513,32.588,32.588,0,0,0-21.5-10.4c-33.992-2.176-49.493,44.446-23.266,65.471a97.412,97.412,0,0,0-9.516,15.359C142.719,111.529,135.163,93.535,136.5,74.61Zm94.8,207.9a7.432,7.432,0,0,1-8.364-2.081c-8.833-10.224-10.067-20.411-9.247-27.781a111.94,111.94,0,0,0,12.561,4.67,91.826,91.826,0,0,0,29.7,11.479Zm29.064,41.246a12,12,0,0,1-10.71,9.332l-14.393,1.194c3.185-25.594,16.094-44.571,26.864-56.333l12.6-7.008c1.622.05,3.258.074,4.883.024.028.021.048.048.076.068l2.6,1.894C269.841,290.618,263.512,310.092,260.366,323.755Zm9.94-101.975c-21.082-12.384-15.686-28.475,8.782-28.633,8.984.1,21.379,2.806,22.637,11.807.943,8.026-6.382,12.691-12.881,16.73A18.615,18.615,0,0,1,270.306,221.78Zm56.5,58.3a7.484,7.484,0,0,1-10.438,4.094L296.2,269.466a92.432,92.432,0,0,0,34.731-13.053A69.149,69.149,0,0,1,326.8,280.084Zm-41.749-20.346v-25.1c9.136-1.755,18.2-8.55,23.492-15.328,6.836-8.425,5.223-23.026-3.628-29.39-15.068-12.2-54.008-11.424-58.29,12.021a21.7,21.7,0,0,0,3.918,16.872h0c5.815,7.535,14.007,14.061,23.507,15.869v25.238c-88.415-5.381-84.065-91.126,3.815-92.869C363.267,168.455,371.3,251.613,285.053,259.738Zm71.57-38.122c7.194-41.083-40.421-66.6-78.756-65.565-44.042-1.519-97.92,33.534-73.553,79.519C113.76,180.287,167.577,68.718,271.168,69.789,361.36,68.1,422.505,159.338,356.623,221.616Zm61.359,225.177c-41.539-19.825-19.679-88.8,21.618-92.54,21.485,21.187,29.362,56.827-4.117,94.624A32.757,32.757,0,0,1,417.982,446.793ZM146.5,391.507c16.417,27.923,5.122,63.761-25.68,63.811-36.457-31.576-33.785-66.6-15.86-89.715C120.634,365.062,137.112,375.246,146.5,391.507Z" fill="inherit"/></g><g id="change1_2"><path d="M244.844,116.926a5.5,5.5,0,0,0-5.5,5.5v3.759a5.5,5.5,0,0,0,11,0v-3.759A5.5,5.5,0,0,0,244.844,116.926Z" fill="inherit"/></g><g id="change1_3"><path d="M303.886,116.926a5.5,5.5,0,0,0-5.5,5.5v3.759a5.5,5.5,0,0,0,11,0v-3.759A5.5,5.5,0,0,0,303.886,116.926Z" fill="inherit"/></g></svg>