<?xml version="1.0" encoding="UTF-8" standalone="no"?><svg xmlns="http://www.w3.org/2000/svg" xmlns:xlink="http://www.w3.org/1999/xlink" fill="#000000" height="500" preserveAspectRatio="xMidYMid meet" version="1" viewBox="-1.3 0.0 339.8 500.0" width="339.8" zoomAndPan="magnify"><g id="change1_1"><path d="M334.3,43.2L267,467.8c-2.71,17.06-17.42,29.63-34.7,29.63H37.7c-21.6,0-38.08-19.3-34.7-40.63L70.3,32.2 C73,15.13,87.72,2.57,105,2.57h194.6C321.2,2.57,337.68,21.87,334.3,43.2z" fill="#755f4f"/></g><g id="change2_1"><path d="M170.63,189.5l-5.02,32.2c-0.46,2.95-3,5.13-5.99,5.13h-33.3c-3.72,0-6.56-3.32-5.99-6.99l5.02-32.2 c0.46-2.95,3-5.13,5.99-5.13h33.3C168.36,182.51,171.2,185.83,170.63,189.5z M139.33,349.01h-33.3c-2.99,0-5.53,2.18-5.99,5.13 l-5.02,32.2c-0.58,3.67,2.27,6.99,5.98,6.99h33.31c2.99,0,5.53-2.18,5.99-5.13l5.02-32.2C145.89,352.33,143.05,349.01,139.33,349.01 z M232.25,267.03h-33.3c-2.99,0-5.53,2.18-5.99,5.13l-5.02,32.2c-0.57,3.67,2.27,6.99,5.99,6.99h33.3c2.99,0,5.53-2.18,5.99-5.13 l5.02-32.2C238.81,270.35,235.97,267.03,232.25,267.03z" fill="#766050"/></g><g id="change3_1"><path d="M328.26,13.22C321.09,4.82,310.64,0,299.59,0H105C86.34,0,70.68,13.37,67.76,31.8L0.47,456.4 c-1.73,10.91,1.39,21.98,8.57,30.38C16.21,495.18,26.66,500,37.7,500h194.6c18.66,0,34.31-13.37,37.23-31.8l67.3-424.6 C338.56,32.69,335.44,21.62,328.26,13.22z M331.76,42.8l-67.3,424.6c-2.52,15.92-16.05,27.47-32.17,27.47H37.7 c-9.54,0-18.57-4.16-24.76-11.42c-6.2-7.25-8.89-16.82-7.4-26.25l67.3-424.6C75.35,16.68,88.88,5.13,105,5.13h194.6 c9.54,0,18.57,4.16,24.77,11.42C330.56,23.81,333.25,33.37,331.76,42.8z M40.8,445.26h189.16l61.3-379.11H102.1L40.8,445.26z M285.23,71.28l-59.64,368.85H46.82l59.64-368.85H285.23z M112.77,145.15h-5.11l12.69-39.23h5.12l10.49,31.13l10.08-31.13h5.11 l-12.69,39.23h-5.11l-10.48-31.2L112.77,145.15z M147.17,145.15l12.7-39.23h21.08l-1.37,4.21h-15.96l-4.24,13.1h14.28l-1.37,4.21 h-14.27l-4.37,13.5h15.97l-1.37,4.21H147.17z M189.61,145.15l-5.7,0.06l1.73-39.24h5.46l-2.2,33.22l20.18-33.22h5.74l-1.72,33.11 l19.31-33.11h5.51l-24.03,39.18h-5.73l1.09-31.53L189.61,145.15z M238.55,134.7c-0.4,1.84-0.15,3.39,0.78,4.64 c0.92,1.25,2.66,1.88,5.21,1.88c2.43,0,4.55-0.61,6.35-1.83c1.79-1.21,3-2.78,3.62-4.69c0.49-1.49,0.47-2.71-0.05-3.65 s-1.32-1.65-2.4-2.14c-1.08-0.48-2.58-1.01-4.49-1.57c-2.37-0.67-4.22-1.34-5.56-2.02s-2.32-1.73-2.96-3.18 c-0.64-1.44-0.57-3.38,0.22-5.82c0.69-2.14,1.85-4.03,3.47-5.68c1.62-1.65,3.56-2.92,5.82-3.82c2.26-0.9,4.66-1.35,7.21-1.35 c3.67,0,6.38,0.91,8.13,2.75c1.75,1.84,2.28,4.27,1.6,7.31h-5.62c0.3-1.49-0.07-2.82-1.08-3.96c-1.01-1.14-2.66-1.71-4.95-1.71 c-2.14,0-4.06,0.55-5.77,1.66c-1.7,1.11-2.88,2.65-3.52,4.64c-0.46,1.42-0.43,2.58,0.08,3.48c0.52,0.9,1.29,1.58,2.32,2.05 c1.03,0.47,2.52,1,4.46,1.6c2.36,0.72,4.21,1.42,5.56,2.11c1.35,0.7,2.35,1.77,3.01,3.21c0.66,1.44,0.59,3.4-0.21,5.87 c-0.62,1.92-1.71,3.71-3.27,5.4c-1.55,1.68-3.49,3.05-5.82,4.1c-2.32,1.05-4.83,1.57-7.53,1.57c-2.59,0-4.76-0.46-6.5-1.38 c-1.75-0.92-2.94-2.19-3.57-3.82s-0.62-3.51,0.03-5.65v0H238.55z M161.64,190.84h-50.76l-7.71,49.45h50.76L161.64,190.84z M109.17,235.16l6.11-39.19h40.37l-6.11,39.19H109.17z M241.4,195.97h-58.31v-5.13h58.31V195.97z M178.1,213h58.31v5.13H178.1V213z M172.91,235.16h58.31v5.13h-58.31V235.16z M128.62,406.79l7.71-49.45H85.56l-7.71,49.45H128.62z M89.96,362.47h40.37l-6.11,39.19 H83.85L89.96,362.47z M157.77,357.34h58.31v5.13h-58.31V357.34z M152.79,379.5h58.31v5.13h-58.31V379.5z M147.6,401.66h58.31v5.13 H147.6V401.66z M170.78,324.81h50.76l7.71-49.45h-50.76L170.78,324.81z M223.26,280.49l-6.11,39.19h-40.37l6.11-39.19H223.26z M158.64,280.49h-58.31v-5.13h58.31V280.49z M153.66,302.65H95.35v-5.13h58.31V302.65z M148.47,324.81H90.16v-5.13h58.31V324.81z M235.64,37.92h-69.62v-5.13h69.62V37.92z" fill="inherit"/></g></svg>