<?xml version="1.0" encoding="UTF-8" standalone="no"?><svg xmlns="http://www.w3.org/2000/svg" xmlns:xlink="http://www.w3.org/1999/xlink" fill="#000000" height="253.1" preserveAspectRatio="xMidYMid meet" version="1" viewBox="88.7 86.1 247.8 253.1" width="247.8" zoomAndPan="magnify"><g id="change1_5"><path d="M295.681,111.014h17.821c2.031,0,3.678,1.647,3.678,3.678v187.871c0,2.031-1.647,3.678-3.678,3.678H276.57 c-2.031,0-3.678-1.647-3.678-3.678V114.692c0-2.031,1.647-3.678,3.678-3.678h5.737" fill="#766050"/></g><g id="change2_5"><path d="M313.502,308.74H276.57c-3.406,0-6.178-2.771-6.178-6.177V114.692c0-3.406,2.771-6.178,6.178-6.178h5.737 c1.381,0,2.5,1.119,2.5,2.5s-1.119,2.5-2.5,2.5h-5.737c-0.649,0-1.178,0.528-1.178,1.178v187.871c0,0.649,0.528,1.177,1.178,1.177 h36.932c0.649,0,1.178-0.528,1.178-1.177V114.692c0-0.649-0.528-1.178-1.178-1.178h-17.821c-1.381,0-2.5-1.119-2.5-2.5 s1.119-2.5,2.5-2.5h17.821c3.406,0,6.178,2.771,6.178,6.178v187.871C319.68,305.969,316.908,308.74,313.502,308.74z" fill="inherit"/></g><g id="change1_6"><path d="M243.535,88.552h16.019c2.278,0,4.125,1.847,4.125,4.125v210.744c0,2.278-1.847,4.125-4.125,4.125h-41.429 c-2.278,0-4.125-1.847-4.125-4.125V92.678c0-2.278,1.847-4.125,4.125-4.125h8.91" fill="#766050"/></g><g id="change2_6"><path d="M259.554,310.048h-41.429c-3.653,0-6.625-2.972-6.625-6.625V92.678c0-3.653,2.972-6.625,6.625-6.625h8.91 c1.381,0,2.5,1.119,2.5,2.5s-1.119,2.5-2.5,2.5h-8.91c-0.896,0-1.625,0.729-1.625,1.625v210.745c0,0.896,0.729,1.625,1.625,1.625 h41.429c0.896,0,1.625-0.729,1.625-1.625V92.678c0-0.896-0.729-1.625-1.625-1.625h-16.019c-1.381,0-2.5-1.119-2.5-2.5 s1.119-2.5,2.5-2.5h16.019c3.653,0,6.625,2.972,6.625,6.625v210.745C266.18,307.076,263.208,310.048,259.554,310.048z" fill="inherit"/></g><g id="change1_7"><path d="M181.43,111.014h20.668c2.031,0,3.678,1.647,3.678,3.678v187.871c0,2.031-1.647,3.678-3.678,3.678h-36.932 c-2.031,0-3.678-1.647-3.678-3.678V114.692c0-2.031,1.647-3.678,3.678-3.678h5.007" fill="#766050"/></g><g id="change2_7"><path d="M202.098,308.74h-36.932c-3.406,0-6.178-2.771-6.178-6.177V114.692c0-3.406,2.771-6.178,6.178-6.178h5.007 c1.381,0,2.5,1.119,2.5,2.5s-1.119,2.5-2.5,2.5h-5.007c-0.649,0-1.178,0.528-1.178,1.178v187.871c0,0.649,0.528,1.177,1.178,1.177 h36.932c0.649,0,1.178-0.528,1.178-1.177V114.692c0-0.649-0.528-1.178-1.178-1.178H181.43c-1.381,0-2.5-1.119-2.5-2.5 s1.119-2.5,2.5-2.5h20.668c3.406,0,6.178,2.771,6.178,6.178v187.871C208.276,305.969,205.504,308.74,202.098,308.74z" fill="inherit"/></g><g id="change1_8"><path d="M150.678,188.167v115.386c0,1.484-1.268,2.688-2.833,2.688h-28.446c-1.564,0-2.833-1.203-2.833-2.688 v-137.29c0-1.484,1.268-2.688,2.833-2.688h28.446c1.564,0,2.833,1.203,2.833,2.688V173" fill="#766050"/></g><g id="change2_8"><path d="M147.845,308.74h-28.446c-2.94,0-5.333-2.327-5.333-5.188v-137.29c0-2.86,2.393-5.188,5.333-5.188h28.446 c2.94,0,5.333,2.327,5.333,5.188V173c0,1.381-1.119,2.5-2.5,2.5s-2.5-1.119-2.5-2.5v-6.736c0-0.056-0.113-0.188-0.333-0.188 h-28.446c-0.22,0-0.333,0.131-0.333,0.188v137.29c0,0.056,0.113,0.188,0.333,0.188h28.446c0.219,0,0.333-0.131,0.333-0.188 V188.167c0-1.381,1.119-2.5,2.5-2.5s2.5,1.119,2.5,2.5v115.386C153.178,306.413,150.786,308.74,147.845,308.74z" fill="inherit"/></g><g id="change1_9"><path d="M214 105.453H263.68V127.31400000000001H214z" fill="#766050"/></g><g id="change2_9"><path d="M263.68,129.814H214c-1.381,0-2.5-1.119-2.5-2.5v-21.861c0-1.381,1.119-2.5,2.5-2.5h49.68c1.381,0,2.5,1.119,2.5,2.5 v21.861C266.18,128.695,265.061,129.814,263.68,129.814z M216.5,124.814h44.68v-16.861H216.5V124.814z" fill="inherit"/></g><g id="change1_10"><path d="M214 266.154H263.68V288.015H214z" fill="#766050"/></g><g id="change2_10"><path d="M263.68,290.515H214c-1.381,0-2.5-1.119-2.5-2.5v-21.861c0-1.381,1.119-2.5,2.5-2.5h49.68c1.381,0,2.5,1.119,2.5,2.5 v21.861C266.18,289.396,265.061,290.515,263.68,290.515z M216.5,285.515h44.68v-16.861H216.5V285.515z" fill="inherit"/></g><g><g id="change1_1"><path d="M334.011,331.731c0,2.704-2.212,4.917-4.917,4.917H96.105c-2.704,0-4.917-2.212-4.917-4.917v-19.267 c0-2.704,2.212-4.917,4.917-4.917h232.989c2.704,0,4.917,2.212,4.917,4.917V331.731z" fill="#766050"/></g><g id="change2_1"><path d="M329.095,339.148H96.105c-4.089,0-7.417-3.327-7.417-7.417v-19.267c0-4.089,3.327-7.417,7.417-7.417h232.989 c4.089,0,7.417,3.327,7.417,7.417v19.267C336.511,335.821,333.184,339.148,329.095,339.148z M96.105,310.048 c-1.333,0-2.417,1.084-2.417,2.417v19.267c0,1.333,1.084,2.417,2.417,2.417h232.989c1.333,0,2.417-1.084,2.417-2.417v-19.267 c0-1.333-1.084-2.417-2.417-2.417H96.105z" fill="inherit"/></g></g><g><g id="change1_3"><path d="M285.889 163.576H304.057V290.334H285.889z" fill="#766050"/></g><g id="change2_3"><path d="M304.057,292.833h-18.168c-1.381,0-2.5-1.119-2.5-2.5V163.576c0-1.381,1.119-2.5,2.5-2.5h18.168 c1.381,0,2.5,1.119,2.5,2.5v126.758C306.557,291.714,305.438,292.833,304.057,292.833z M288.389,287.833h13.168V166.076h-13.168 V287.833z" fill="inherit"/></g></g><g><g id="change1_2"><path d="M174.548 143.221H192.716V269.979H174.548z" fill="#766050"/></g><g id="change2_2"><path d="M192.716,272.479h-18.168c-1.381,0-2.5-1.119-2.5-2.5V143.221c0-1.381,1.119-2.5,2.5-2.5h18.168 c1.381,0,2.5,1.119,2.5,2.5v126.758C195.216,271.36,194.097,272.479,192.716,272.479z M177.048,267.479h13.168V145.721h-13.168 V267.479z" fill="inherit"/></g></g><g><g id="change1_11"><path d="M126.564 189H140.68V286.2H126.564z" fill="#766050"/></g><g id="change2_11"><path d="M140.68,288.7h-14.116c-1.381,0-2.5-1.119-2.5-2.5V189c0-1.381,1.119-2.5,2.5-2.5h14.116c1.381,0,2.5,1.119,2.5,2.5v97.2 C143.18,287.581,142.061,288.7,140.68,288.7z M129.064,283.7h9.116v-92.2h-9.116V283.7z" fill="inherit"/></g></g><g><g id="change1_4"><path d="M272.892 130.499H317.179V152.654H272.892z" fill="#766050"/></g><g id="change2_4"><path d="M317.18,155.154h-44.288c-1.381,0-2.5-1.119-2.5-2.5v-22.155c0-1.381,1.119-2.5,2.5-2.5h44.288c1.381,0,2.5,1.119,2.5,2.5 v22.155C319.68,154.035,318.561,155.154,317.18,155.154z M275.392,150.154h39.288v-17.155h-39.288V150.154z" fill="inherit"/></g></g></svg>